<?xml version="1.0" encoding="utf-8"?>
<!-- Generator: Adobe Illustrator 16.0.3, SVG Export Plug-In . SVG Version: 6.00 Build 0)  -->
<!DOCTYPE svg PUBLIC "-//W3C//DTD SVG 1.1//EN" "http://www.w3.org/Graphics/SVG/1.1/DTD/svg11.dtd">
<svg version="1.1" id="圖層_1" xmlns="http://www.w3.org/2000/svg" xmlns:xlink="http://www.w3.org/1999/xlink" x="0px" y="0px"
	 width="99.25px" height="84px" viewBox="0 0 99.25 84" enable-background="new 0 0 99.25 84" xml:space="preserve">
<g>
	<g>
		<defs>
			<path id="SVGID_1_" d="M62.8,57c-0.5,0.7-1.3,2-2.1,2.8c-1.8,2-2.4,2.7-2.8,3.2s-0.3,0.9,0.1,1.4c2.3,3.5,0.6,7.399-0.4,9
				c-1.3,2.1-3,2.5-2.3,2.8c0.7,0.2,7.8-2.4,9.7-3.601c2.3-1.3,4.2-2.399,4.9-5c0.7-2.399-0.1-4.199-2.1-6.1
				c-1.7-1.6-3.5-3.7-4.2-4.6c-0.1-0.2-0.3-0.601-0.5-0.601C63.1,56.3,63,56.8,62.8,57"/>
		</defs>
		<clipPath id="SVGID_2_">
			<use xlink:href="#SVGID_1_"  overflow="visible"/>
		</clipPath>
		
			<linearGradient id="SVGID_3_" gradientUnits="userSpaceOnUse" x1="-72.1206" y1="321.6953" x2="-69.5916" y2="321.6953" gradientTransform="matrix(-0.1926 6.0663 -6.0663 -0.1926 2000.6943 552.9925)">
			<stop  offset="0" style="stop-color:#FFF79D"/>
			<stop  offset="1" style="stop-color:#008059"/>
		</linearGradient>
		<path clip-path="url(#SVGID_2_)" fill="url(#SVGID_3_)" d="M71.4,56.4L70.7,77L54,76.5l0.6-20.7L71.4,56.4z"/>
	</g>
	<g>
		<defs>
			<path id="SVGID_4_" d="M61.5,75.6c-0.1,0-0.2,0-2.3,0.7c-3.3,1.2-8.8,1.101-8.8,1.101c-0.7,0.1-0.3,0.199-0.3,0.399
				c0.1,0.2,1.6,1.2,3.5,1.5c1.3,0.2,1.8,0.2,2.4,0.2h1.9c3.2,0.2,3.8,0.6,5,1.1c1.8,0.7,3.1,1.601,3.3,1.801
				c0.4,0.399,1.1,1.1,1.2,1c0.2-0.101,0.1-0.2-0.1-0.801c-0.2-0.5-2-3.199-2-3.199C63.6,77.1,62.9,76.6,62.5,76
				c-0.3-0.4-0.6-0.5-0.9-0.5C61.7,75.5,61.6,75.6,61.5,75.6"/>
		</defs>
		<clipPath id="SVGID_5_">
			<use xlink:href="#SVGID_4_"  overflow="visible"/>
		</clipPath>
		
			<linearGradient id="SVGID_6_" gradientUnits="userSpaceOnUse" x1="-220.1152" y1="317.9131" x2="-217.5882" y2="317.9131" gradientTransform="matrix(-4.2917 -2.7358 2.7358 -4.2917 -1749.0955 845.8944)">
			<stop  offset="0" style="stop-color:#FFF79D"/>
			<stop  offset="1" style="stop-color:#008059"/>
		</linearGradient>
		<path clip-path="url(#SVGID_5_)" fill="url(#SVGID_6_)" d="M62.6,91.7L46.2,81.2L55,67.4l16.4,10.5L62.6,91.7z"/>
	</g>
	<g>
		<defs>
			<path id="SVGID_7_" d="M72.4,54.7c-1.9,0.899-5.7,2.2-5.7,2.2C65.5,57.3,66.1,58,66.1,58s1.8,1.5,2.1,1.7c0.4,0.3,0.7,0,0.7,0
				s1.4-0.8,2.5-1.7s2.4-2.7,2.7-3.3c0.1-0.3,0-0.4-0.3-0.4C73.5,54.2,73.1,54.4,72.4,54.7"/>
		</defs>
		<clipPath id="SVGID_8_">
			<use xlink:href="#SVGID_7_"  overflow="visible"/>
		</clipPath>
		
			<linearGradient id="SVGID_9_" gradientUnits="userSpaceOnUse" x1="-63.9048" y1="486.5967" x2="-61.3789" y2="486.5967" gradientTransform="matrix(3.2442 0 0 3.2442 273.2678 -1521.5178)">
			<stop  offset="0" style="stop-color:#FFF79D"/>
			<stop  offset="1" style="stop-color:#008059"/>
		</linearGradient>
		<path clip-path="url(#SVGID_8_)" fill="url(#SVGID_9_)" d="M65.5,54.2h8.6V60h-8.6V54.2z"/>
	</g>
	<g>
		<defs>
			<path id="SVGID_10_" d="M59,58.3c-0.4,0.101-1.2,0.4-2.6,0.5c-1.6,0-3.4-0.2-3.4-0.2c-0.8,0-0.5,0.5,0,0.7
				c0.9,0.4,1.5,1,2.2,1.601c1,0.899,1.1,0.899,1.3,1.199c0.2,0.301,0.5,0.301,1.1-0.3c0.5-0.6,2.6-3.1,2.7-3.3
				c0.2-0.4,0-0.5-0.3-0.5C59.6,58.1,59,58.3,59,58.3"/>
		</defs>
		<clipPath id="SVGID_11_">
			<use xlink:href="#SVGID_10_"  overflow="visible"/>
		</clipPath>
		
			<linearGradient id="SVGID_12_" gradientUnits="userSpaceOnUse" x1="-63.4551" y1="492.7705" x2="-60.9301" y2="492.7705" gradientTransform="matrix(3.1085 0 0 3.1085 249.7411 -1471.4794)">
			<stop  offset="0" style="stop-color:#FFF79D"/>
			<stop  offset="1" style="stop-color:#008059"/>
		</linearGradient>
		<path clip-path="url(#SVGID_11_)" fill="url(#SVGID_12_)" d="M52.2,58.1h8.2v4.4h-8.2V58.1z"/>
	</g>
	<g>
		<defs>
			<path id="SVGID_13_" d="M75.3,54.9c0,0,0.5,1.6-3.2,4.199C71,59.9,70.6,60,70.3,60.3C69.8,60.9,70,61.7,70.6,62.4
				c0.5,0.6,1.1,2.3,1,3.8c-0.1,1.7-0.3,2.899-1.6,4.2c-1.2,1.3-2.9,2.399-4.5,2.899c-1,0.3-0.8,0.601,0.1,0.5
				c0.9-0.1,3.9-0.5,6.8-1.3c1-0.3,4-1.3,6.8-4c1.6-1.6,2.9-4.1,2.2-6.3c-0.4-1.4-1.2-2.8-3-4.101c-0.9-0.699-1.9-1.8-2.4-2.6
				c-0.3-0.4-0.2-0.9-0.5-0.9C75.3,54.6,75.4,54.8,75.3,54.9"/>
		</defs>
		<clipPath id="SVGID_14_">
			<use xlink:href="#SVGID_13_"  overflow="visible"/>
		</clipPath>
		
			<linearGradient id="SVGID_15_" gradientUnits="userSpaceOnUse" x1="-51.5273" y1="303.2676" x2="-48.9996" y2="303.2676" gradientTransform="matrix(-0.2869 4.4939 -4.4939 -0.2869 1422.0313 372.5273)">
			<stop  offset="0" style="stop-color:#FFF79D"/>
			<stop  offset="1" style="stop-color:#008059"/>
		</linearGradient>
		<path clip-path="url(#SVGID_14_)" fill="url(#SVGID_15_)" d="M83.3,54.7L82,75.1L63.3,73.9l1.3-20.4L83.3,54.7z"/>
	</g>
	<g>
		<defs>
			<path id="SVGID_16_" d="M77.5,44.6c-1.4,0.9-3.5,1.9-5.4,4c-0.7,0.7-1.5,1.801-1.7,1.9c-0.1,0.2-0.5,0.8,0.6,1
				c1,0.2,3.6,1.1,4.9,1.9c1,0.6,1.6,1.399,2,1.199c0.4-0.1,1.9-1.1,2.5-3.399c0.3-1,0.4-2.9-0.3-4.7c-0.7-1.8-0.3-3.7-0.3-3.9
				c0-0.2-0.2-0.2-0.2-0.2S78.7,43.9,77.5,44.6"/>
		</defs>
		<clipPath id="SVGID_17_">
			<use xlink:href="#SVGID_16_"  overflow="visible"/>
		</clipPath>
		
			<linearGradient id="SVGID_18_" gradientUnits="userSpaceOnUse" x1="-45.0371" y1="301.9229" x2="-42.5101" y2="301.9229" gradientTransform="matrix(-0.1294 4.2049 -4.2049 -0.1294 1339.3584 271.1875)">
			<stop  offset="0" style="stop-color:#FFF79D"/>
			<stop  offset="1" style="stop-color:#008059"/>
		</linearGradient>
		<path clip-path="url(#SVGID_17_)" fill="url(#SVGID_18_)" d="M81.3,42.5l-0.4,12.7l-11.3-0.4L70,42.1L81.3,42.5z"/>
	</g>
	<g>
		<defs>
			<path id="SVGID_19_" d="M86.6,47.1c0,0-4.2,4-4.9,4.9c-1.3,1.6-2.5,3.4-2.6,3.5c-0.1,0.2-0.5,0.8,0.1,1.3
				c0.6,0.4,1.3,1.101,2.2,2.4c1,1.5,1,2.1,1.2,2.399c0.1,0.301,0.4,0.5,0.9,0.101c0.9-0.601,2.9-1.4,3.6-1.7
				c0.3-0.1,1.1-0.1,0.8-0.7c-0.2-0.3-0.9-2.2-1.4-3.8c-0.4-1.1-1-4-0.2-7c0.2-0.6,0.9-1.7,0.9-1.7s0-0.2-0.2-0.2
				C87.1,46.7,86.9,46.8,86.6,47.1"/>
		</defs>
		<clipPath id="SVGID_20_">
			<use xlink:href="#SVGID_19_"  overflow="visible"/>
		</clipPath>
		
			<linearGradient id="SVGID_21_" gradientUnits="userSpaceOnUse" x1="-63.0684" y1="313.2832" x2="-60.5408" y2="313.2832" gradientTransform="matrix(-0.1622 5.2724 -5.2724 -0.1622 1725.2498 430.467)">
			<stop  offset="0" style="stop-color:#FFF79D"/>
			<stop  offset="1" style="stop-color:#008059"/>
		</linearGradient>
		<path clip-path="url(#SVGID_20_)" fill="url(#SVGID_21_)" d="M88.8,46.8L88.3,62.4L78.2,62.1L78.7,46.4L88.8,46.8z"/>
	</g>
	<g>
		<g>
			<defs>
				<path id="SVGID_22_" d="M87.1,61.7c-2.6,0.8-2.8,1-3,1.1c-0.8,0.4-0.8,0.4-1.2,1.4c-0.4,1.1-0.6,2-1,2.7
					c-0.6,1.1-1.6,2.5-2,2.899c-0.4,0.3-1.1,0.9-0.2,0.9c0.8-0.101,3.4-0.2,5.6-1.8C86.9,67.8,89,66.1,91.6,65
					c1.8-0.8,5.1-1,5.9-1.1c0.6-0.101,0.4-0.2,0-0.5c-0.5-0.301-3.1-1.801-5.1-2C91.9,61.3,91,61.2,90,61.2
					C89.2,61.3,88.2,61.4,87.1,61.7"/>
			</defs>
			<clipPath id="SVGID_23_">
				<use xlink:href="#SVGID_22_"  overflow="visible"/>
			</clipPath>
			
				<linearGradient id="SVGID_24_" gradientUnits="userSpaceOnUse" x1="-201.6025" y1="268.3906" x2="-199.0775" y2="268.3906" gradientTransform="matrix(-4.2087 -0.1913 0.1913 -4.2087 -804.2458 1157.3612)">
				<stop  offset="0" style="stop-color:#FFF79D"/>
				<stop  offset="1" style="stop-color:#008059"/>
			</linearGradient>
			<path clip-path="url(#SVGID_23_)" fill="url(#SVGID_24_)" d="M98,71.6l-19.6-0.8L78.9,60.4L98.5,61.3L98,71.6z"/>
		</g>
	</g>
	<g>
		<g>
			<defs>
				<path id="SVGID_25_" d="M76.5,72.4c-0.6,0.3-2.6,1.399-5.7,2c-2,0.3-5.4,0.5-5.4,0.5c-0.9,0-0.7,0.3-0.3,0.5
					c0.4,0.3,2.1,1.6,4.7,1.8c2.9,0.3,3.9,0,6.5-0.7c2.6-0.7,3.3-0.2,4.8,0c0.9,0.2,4.3,1.8,4.1,1.3c-0.1-0.2-0.7-1.2-0.7-1.2
					s-3.3-3.8-4.9-4.6c-0.5-0.2-0.9-0.3-1.3-0.3C77.4,71.8,76.9,72.2,76.5,72.4"/>
			</defs>
			<clipPath id="SVGID_26_">
				<use xlink:href="#SVGID_25_"  overflow="visible"/>
			</clipPath>
			
				<linearGradient id="SVGID_27_" gradientUnits="userSpaceOnUse" x1="-54.8042" y1="488.9453" x2="-52.2742" y2="488.9453" gradientTransform="matrix(-1.4014 2.8359 2.8359 1.4014 -1385.5266 -460.8901)">
				<stop  offset="0" style="stop-color:#FFF79D"/>
				<stop  offset="1" style="stop-color:#008059"/>
			</linearGradient>
			<path clip-path="url(#SVGID_26_)" fill="url(#SVGID_27_)" d="M68.5,63.5L61.8,77l19.4,9.6l6.7-13.5L68.5,63.5z"/>
		</g>
	</g>
	<g>
		<g>
			<defs>
				<path id="SVGID_28_" d="M36.2,56.3c-0.1,0-0.3,0.5-0.5,0.601C35,57.8,33.2,59.8,31.5,61.5c-2,2-2.8,3.7-2.1,6.1
					c0.8,2.7,2.6,3.7,4.9,5c2,1.101,9,3.801,9.7,3.601s-1-0.7-2.3-2.8c-1-1.601-2.7-5.5-0.4-9c0.4-0.601,0.5-0.9,0.1-1.4
					s-0.9-1.1-2.8-3.2c-0.7-0.8-1.6-2.1-2-2.8C36.4,56.8,36.3,56.3,36.2,56.3"/>
			</defs>
			<clipPath id="SVGID_29_">
				<use xlink:href="#SVGID_28_"  overflow="visible"/>
			</clipPath>
			
				<linearGradient id="SVGID_30_" gradientUnits="userSpaceOnUse" x1="-69.7598" y1="396.3828" x2="-67.2311" y2="396.3828" gradientTransform="matrix(0.1926 6.0663 6.0663 -0.1926 -2354.8076 553.0589)">
				<stop  offset="0" style="stop-color:#FFF79D"/>
				<stop  offset="1" style="stop-color:#008059"/>
			</linearGradient>
			<path clip-path="url(#SVGID_29_)" fill="url(#SVGID_30_)" d="M28.1,56.4L28.7,77l16.7-0.5l-0.6-20.7L28.1,56.4z"/>
		</g>
	</g>
	<g>
		<g>
			<defs>
				<path id="SVGID_31_" d="M36.8,76.1C36.3,76.7,35.7,77.2,34,79.5c0,0-1.8,2.7-2,3.2c-0.2,0.6-0.3,0.7-0.1,0.8
					c0.1,0.1,0.8-0.7,1.2-1c0.2-0.2,1.5-1.1,3.3-1.8c1.2-0.5,1.8-0.9,5-1.101c0.9-0.1,1.4,0,1.9,0c0.7,0,1.2,0,2.5-0.199
					c1.9-0.301,3.5-1.301,3.5-1.5c0.1-0.2,0.4-0.301-0.3-0.4c0,0-5.5,0.1-8.8-1.1c-2-0.7-2.2-0.7-2.2-0.7h-0.1
					c-0.1,0-0.1-0.101-0.2-0.101C37.4,75.5,37.1,75.7,36.8,76.1"/>
			</defs>
			<clipPath id="SVGID_32_">
				<use xlink:href="#SVGID_31_"  overflow="visible"/>
			</clipPath>
			
				<linearGradient id="SVGID_33_" gradientUnits="userSpaceOnUse" x1="-145.1382" y1="269.9375" x2="-142.6112" y2="269.9375" gradientTransform="matrix(4.2911 -2.7355 -2.7355 -4.2911 1395.3347 845.0153)">
				<stop  offset="0" style="stop-color:#FFF79D"/>
				<stop  offset="1" style="stop-color:#008059"/>
			</linearGradient>
			<path clip-path="url(#SVGID_32_)" fill="url(#SVGID_33_)" d="M36.9,91.7l16.3-10.5l-8.8-13.8L28.1,77.9L36.9,91.7z"/>
		</g>
	</g>
	<g>
		<g>
			<defs>
				<path id="SVGID_34_" d="M25.4,54.7c0.2,0.6,1.5,2.399,2.7,3.3c1.1,0.9,2.5,1.7,2.5,1.7s0.4,0.3,0.7,0c0.3-0.2,2.1-1.7,2.1-1.7
					s0.5-0.7-0.6-1.1c0,0-3.8-1.2-5.7-2.2c-0.7-0.3-1.2-0.5-1.4-0.5C25.3,54.2,25.2,54.4,25.4,54.7"/>
			</defs>
			<clipPath id="SVGID_35_">
				<use xlink:href="#SVGID_34_"  overflow="visible"/>
			</clipPath>
			
				<linearGradient id="SVGID_36_" gradientUnits="userSpaceOnUse" x1="-203.5674" y1="486.457" x2="-201.0423" y2="486.457" gradientTransform="matrix(-3.2455 0 0 3.2455 -627.2064 -1521.6956)">
				<stop  offset="0" style="stop-color:#FFF79D"/>
				<stop  offset="1" style="stop-color:#008059"/>
			</linearGradient>
			<path clip-path="url(#SVGID_35_)" fill="url(#SVGID_36_)" d="M25.2,54.2h8.6V60h-8.6V54.2z"/>
		</g>
	</g>
	<g>
		<g>
			<defs>
				<path id="SVGID_37_" d="M39.1,58.5c0.1,0.2,2.1,2.7,2.7,3.3c0.6,0.601,0.9,0.5,1.1,0.3c0.2-0.3,0.3-0.3,1.3-1.199
					c0.7-0.601,1.3-1.2,2.2-1.601c0.5-0.2,0.7-0.7,0-0.7c0,0-1.9,0.2-3.4,0.2c-1.4,0-2.1-0.399-2.6-0.5c0,0-0.6-0.2-1-0.2
					C39.2,58.1,39,58.2,39.1,58.5"/>
			</defs>
			<clipPath id="SVGID_38_">
				<use xlink:href="#SVGID_37_"  overflow="visible"/>
			</clipPath>
			
				<linearGradient id="SVGID_39_" gradientUnits="userSpaceOnUse" x1="-209.0972" y1="492.5098" x2="-206.5717" y2="492.5098" gradientTransform="matrix(-3.1094 0 0 3.1094 -603.2393 -1471.1125)">
				<stop  offset="0" style="stop-color:#FFF79D"/>
				<stop  offset="1" style="stop-color:#008059"/>
			</linearGradient>
			<path clip-path="url(#SVGID_38_)" fill="url(#SVGID_39_)" d="M39,58.1h8.2v4.4H39V58.1z"/>
		</g>
	</g>
	<g>
		<g>
			<defs>
				<path id="SVGID_40_" d="M23.4,55.5c-0.5,0.8-1.4,1.9-2.4,2.6c-1.8,1.4-2.6,2.801-3,4.101c-0.7,2.2,0.6,4.7,2.2,6.3
					c2.7,2.7,5.8,3.7,6.7,4c2.9,0.9,5.9,1.3,6.8,1.3c0.9,0.101,1.1-0.2,0.1-0.5c-1.6-0.6-3.3-1.7-4.5-2.899
					c-1.3-1.301-1.5-2.5-1.6-4.2c-0.1-1.5,0.5-3.2,1-3.8c0.6-0.801,0.8-1.5,0.3-2.101c-0.3-0.399-0.7-0.5-1.8-1.2
					C23.5,56.5,24,54.9,24,54.9c0-0.101,0-0.301-0.2-0.301C23.6,54.6,23.6,55,23.4,55.5"/>
			</defs>
			<clipPath id="SVGID_41_">
				<use xlink:href="#SVGID_40_"  overflow="visible"/>
			</clipPath>
			
				<linearGradient id="SVGID_42_" gradientUnits="userSpaceOnUse" x1="-45.0732" y1="403.7012" x2="-42.5452" y2="403.7012" gradientTransform="matrix(0.2869 4.4939 4.4939 -0.2869 -1775.7982 372.3347)">
				<stop  offset="0" style="stop-color:#FFF79D"/>
				<stop  offset="1" style="stop-color:#008059"/>
			</linearGradient>
			<path clip-path="url(#SVGID_41_)" fill="url(#SVGID_42_)" d="M16.1,54.7L17.4,75.1L36.1,73.9l-1.3-20.4L16.1,54.7z"/>
		</g>
	</g>
	<g>
		<g>
			<defs>
				<path id="SVGID_43_" d="M19.6,42.7c0,0.2,0.4,2.1-0.3,3.899c-0.7,1.801-0.5,3.7-0.3,4.7c0.6,2.3,2.1,3.3,2.5,3.4
					c0.5,0.2,1-0.601,2-1.2c1.3-0.7,3.9-1.6,4.9-1.9c1-0.199,0.7-0.899,0.6-1C28.9,50.4,28,49.4,27.3,48.7c-1.9-2.101-4-3.101-5.4-4
					c-1.1-0.8-2.2-2.2-2.2-2.2S19.5,42.5,19.6,42.7"/>
			</defs>
			<clipPath id="SVGID_44_">
				<use xlink:href="#SVGID_43_"  overflow="visible"/>
			</clipPath>
			
				<linearGradient id="SVGID_45_" gradientUnits="userSpaceOnUse" x1="-41.7808" y1="409.7393" x2="-39.2528" y2="409.7393" gradientTransform="matrix(0.1294 4.205 4.205 -0.1294 -1693.7294 271.4628)">
				<stop  offset="0" style="stop-color:#FFF79D"/>
				<stop  offset="1" style="stop-color:#008059"/>
			</linearGradient>
			<path clip-path="url(#SVGID_44_)" fill="url(#SVGID_45_)" d="M18.2,42.5l0.4,12.7l11.2-0.4l-0.4-12.7L18.2,42.5z"/>
		</g>
	</g>
	<g>
		<g>
			<defs>
				<path id="SVGID_46_" d="M12,47c0,0,0.7,1.1,0.9,1.7c0.9,3.1,0.2,5.899-0.2,7c-0.5,1.6-1.2,3.5-1.4,3.8c-0.3,0.5,0.5,0.6,0.8,0.7
					c0.8,0.2,2.8,1.1,3.7,1.7c0.5,0.3,0.8,0.199,0.9-0.101c0.1-0.3,0.2-0.899,1.2-2.399c0.9-1.301,1.6-2,2.2-2.4s0.2-1.1,0.1-1.3
					c-0.1-0.2-1.3-2-2.6-3.5c-0.8-0.9-4.9-4.9-4.9-4.9C12.4,47,12.2,46.9,12.1,46.9C12,46.7,12,47,12,47"/>
			</defs>
			<clipPath id="SVGID_47_">
				<use xlink:href="#SVGID_46_"  overflow="visible"/>
			</clipPath>
			
				<linearGradient id="SVGID_48_" gradientUnits="userSpaceOnUse" x1="-60.3521" y1="399.1328" x2="-57.8255" y2="399.1328" gradientTransform="matrix(0.1622 5.2723 5.2723 -0.1622 -2078.8455 430.0698)">
				<stop  offset="0" style="stop-color:#FFF79D"/>
				<stop  offset="1" style="stop-color:#008059"/>
			</linearGradient>
			<path clip-path="url(#SVGID_47_)" fill="url(#SVGID_48_)" d="M10.6,46.8L11.1,62.4L21.3,62.1L20.8,46.4L10.6,46.8z"/>
		</g>
	</g>
	<g>
		<g>
			<defs>
				<path id="SVGID_49_" d="M6.9,61.5c-2,0.2-4.6,1.6-5.1,2c-0.4,0.3-0.5,0.4,0,0.5c0.9,0,4.2,0.3,6,1.1c2.6,1.101,4.7,2.7,6.3,3.9
					c2.2,1.6,4.8,1.7,5.6,1.8c0.8,0.101,0.2-0.5-0.2-0.899C19.1,69.6,18,68.2,17.4,67c-0.3-0.7-0.6-1.6-1-2.7
					C16,63.2,16,63.2,15.2,62.9C15,62.8,14.7,62.6,12.2,61.8c-1-0.3-2-0.399-2.9-0.399C8.3,61.3,7.5,61.4,6.9,61.5"/>
			</defs>
			<clipPath id="SVGID_50_">
				<use xlink:href="#SVGID_49_"  overflow="visible"/>
			</clipPath>
			
				<linearGradient id="SVGID_51_" gradientUnits="userSpaceOnUse" x1="-94.1338" y1="263.4648" x2="-91.6085" y2="263.4648" gradientTransform="matrix(4.2102 -0.1914 -0.1914 -4.2102 450.58 1157.5951)">
				<stop  offset="0" style="stop-color:#FFF79D"/>
				<stop  offset="1" style="stop-color:#008059"/>
			</linearGradient>
			<path clip-path="url(#SVGID_50_)" fill="url(#SVGID_51_)" d="M1.4,71.6L21,70.8L20.5,60.4L0.9,61.3L1.4,71.6z"/>
		</g>
	</g>
	<g>
		<g>
			<defs>
				<path id="SVGID_52_" d="M20,72.1C18.4,72.9,15.1,76.7,15.1,76.7s-0.6,0.899-0.7,1.2c-0.2,0.399,3.1-1.2,4.1-1.301
					c1.5-0.3,2.2-0.699,4.8,0c2.6,0.7,3.6,1,6.5,0.7c2.5-0.2,4.3-1.5,4.7-1.8s0.6-0.5-0.3-0.5c0,0-3.5-0.2-5.4-0.5
					c-3.1-0.5-5.1-1.6-5.7-2c-0.4-0.2-0.9-0.6-1.7-0.6C20.9,71.8,20.5,71.9,20,72.1"/>
			</defs>
			<clipPath id="SVGID_53_">
				<use xlink:href="#SVGID_52_"  overflow="visible"/>
			</clipPath>
			
				<linearGradient id="SVGID_54_" gradientUnits="userSpaceOnUse" x1="8.5635" y1="360.3271" x2="11.0935" y2="360.3271" gradientTransform="matrix(1.4017 2.8366 -2.8366 1.4017 1031.6111 -460.4404)">
				<stop  offset="0" style="stop-color:#FFF79D"/>
				<stop  offset="1" style="stop-color:#008059"/>
			</linearGradient>
			<path clip-path="url(#SVGID_53_)" fill="url(#SVGID_54_)" d="M30.9,63.5L37.6,77l-19.4,9.6l-6.7-13.5L30.9,63.5z"/>
		</g>
	</g>
	<path fill="#FCD13E" d="M77.7,28.9c0,15.5-12.5,28-28,28s-28-12.601-28-28c0-15.5,12.5-28.1,28-28.1C65.1,0.8,77.7,13.4,77.7,28.9"
		/>
	<path fill="#FFFFFF" d="M70.5,28.9c0,11.5-9.3,20.9-20.9,20.9c-11.5,0-20.9-9.3-20.9-20.9C28.8,17.4,38.1,8,49.7,8
		C61.2,8,70.5,17.4,70.5,28.9"/>
	<path fill="none" stroke="#FCD13E" stroke-width="0.751" d="M69.2,28.9c0,10.8-8.7,19.5-19.5,19.5c-10.8,0-19.5-8.7-19.5-19.5
		c0-10.8,8.7-19.5,19.5-19.5C60.4,9.4,69.2,18.1,69.2,28.9z"/>
	<path fill="#009844" d="M49.6,17.5c-3.1-2-7.1-2.5-11-0.2c-5.3,3.2-6.2,10-2.9,15.4c3.6,6.1,10.7,11.8,14,12.899
		c0.7-0.3,2.6-1.399,2.9-1.6c0,0-19.7-10.2-16-21.1c2.7-7.9,13.2-6.9,14.7,0.6c0.6,2.9-0.6,4.8-0.8,5.2c0,0,2.6,1.8,2.7,1.8
		C55.5,25.5,53.6,20,49.6,17.5"/>
	<path fill="#009844" d="M41,22.6c0.2-1,0.7-1.8,1.4-2.8c-1.9,0.6-3,1.9-3.6,3.3c-3.2,8.7,13.8,18.5,15.6,19.8
		c0.3-0.2,1.7-1.3,2.4-1.9C56.7,40.9,38.9,32.2,41,22.6"/>
	<path fill="#009844" d="M45.5,19.7c-0.7,0.2-2,1.6-2.4,2.9c-2.1,6.6,11,14.9,15.2,16.8c0.6-0.6,1.3-1.3,2-2.2
		C60.3,37.2,41.2,28.6,45.5,19.7"/>
	<path fill="#009844" d="M51.1,16.9c4.9-0.8,8.2,3.4,8.8,7.4c0.6,3.9-0.9,6.6-2.5,8.7L55,31.6C59.4,26.5,56.6,18.9,51.1,16.9"/>
	<path fill="#009844" d="M55.7,16.1c2.3,0.9,7.8,3.6,7.6,10.1c-0.1,4-3,7-3.8,7.9c0.2,0.2,2.4,1.2,2.4,1.2c2.9-3.7,4-6.5,3.8-9.9
		C65.2,17.7,58.2,15.8,55.7,16.1"/>
	<g>
		<g>
			<defs>
				<path id="SVGID_55_" d="M49.7,58c-0.7,0-0.8,1-1.8,2c-0.6,0.6-0.2,0.2-2.3,1.8c-3,2.2-3.9,3.7-3.9,6.8
					c0,1.801,0.6,3.5,1.6,4.801c0.1,0.1,0.1,0.199,0.2,0.3c0,0.1,0.1,0.1,0.1,0.2c1.5,1.699,3.6,2.699,6,2.699c4.4,0,8-3.6,8-8
					c0-2.899-1.8-5.399-4-6.899c-1.3-0.9-1.1-0.8-1.8-1.3C50.3,59.1,50.4,58,49.7,58"/>
			</defs>
			<clipPath id="SVGID_56_">
				<use xlink:href="#SVGID_55_"  overflow="visible"/>
			</clipPath>
			
				<linearGradient id="SVGID_57_" gradientUnits="userSpaceOnUse" x1="-54.7505" y1="320.5439" x2="-52.2235" y2="320.5439" gradientTransform="matrix(0.1965 5.0097 -5.0097 0.1965 1665.9368 268.3549)">
				<stop  offset="0" style="stop-color:#FFF79D"/>
				<stop  offset="1" style="stop-color:#008059"/>
			</linearGradient>
			<path clip-path="url(#SVGID_56_)" fill="url(#SVGID_57_)" d="M57.7,57.4L58.4,76.6L41.8,77.2L41.1,58.1L57.7,57.4z"/>
		</g>
	</g>
</g>
</svg>
