<svg xmlns="http://www.w3.org/2000/svg" xmlns:xlink="http://www.w3.org/1999/xlink" width="480" height="84"><path d="M102.3 16.2c.4-.5.7-.7.9-.7.2 0 .4.1.4.4 0 .4-.2.9-.6 1.4-1.1 1.4-2 2.3-2.6 2.6-.5.3-.9.3-1.2.2-.4-.2-.6-.6-.6-1 0-.5.3-.9.9-1 1.1-.2 2-.8 2.8-1.9zm4.5-1.5c-2.5-.1-4.1-.1-4.9.1-.5 0-.9-.1-1.2-.5-.2-.3-.3-.8-.3-1.5-.1-5.6-.1-8.7 0-9.4.1-.4.2-.6.4-.7.3-.2.7-.3 1-.2h1.4c3.2-.1 4.9.1 5.2.4.2.3.3.6.3 1.1v7.2c-.1.5 0 1.1 0 1.7 0 .8-.1 1.3-.4 1.6-.5.1-.9.2-1.5.2zm-2.2-8.6c1.4 0 2.3 0 2.7-.1 0-1.3-.1-2.1-.3-2.3s-1.2-.2-2.9-.2c-1.4 0-2.2.1-2.2.2-.2.1-.2.9-.3 2.3h.2c.4.1 1.3.1 2.8.1zm-.1 3.5c1.6 0 2.5-.1 2.8-.1V7.4c-.4-.1-1.3-.1-2.7-.1-1.5 0-2.4.1-2.8.1h-.3v2.1h.2c.5.1 1.4.1 2.8.1zm-2.9 1.3c.1 1.3.2 2 .3 2 .2.2 1 .2 2.5.2 1.4 0 2.3-.1 2.5-.2.2-.2.3-.9.3-2-.1-.1-.3-.1-.8-.1-2.2-.1-3.8-.1-4.6.1h-.2zm4.7 6.7c-.6-.3-.9-.5-.9-.8 0-.4.3-.7.9-.8.6-.1 1 .1 1.3.6.3.5.8 1 1.2 1.4.3.3.3.5.2.8-.1.2-.2.3-.3.3-.2-.1-.5-.2-.7-.4-.3-.3-.8-.7-1.7-1.1zm10.2-5.9c-1 .6-1.5 1.1-1.8 1.5-2.1 1.8-3.6 2.8-4.4 3-.5.2-.9.2-1.2 0-.3-.2-.4-.5-.3-.8.1-.3.3-.6.7-.7 3.2-1.3 5.4-2.9 6.8-4.8.1-.1.1-.2.2-.2l.1-2.7h-.9c-1.7.1-3 .2-3.8.5-.9.2-1.5.2-1.7 0-.2-.3-.2-.6 0-1 .1-.2.3-.4.5-.5.2-.2 1.4-.3 3.4-.3h2.6l-.1-4c0-.4.1-.7.3-.7.3 0 .6.1.8.3.4.4.6.9.4 1.6-.1.5-.2 1.5-.3 2.9h3.6c.6 0 .9.1.9.4-.1.3-.3.6-.8.9-.3.2-.8.2-1.3.1-.7-.1-1.5-.2-2.4-.1-.1 3.7 0 7.1.2 10.4.2 1.8.1 2.8-.2 3.1-.4.3-.7.2-1-.2-.3-.4-.4-1.1-.3-2.1v-6.6zM131.3 1c2.3.1 5.2.1 8.6 0 4.4 0 6.7.1 7 .2.4.2.7.5.9 1 .1.3.2 1 .1 1.9-.4 5-.5 9.3-.3 13.1.1.9 0 1.7-.2 2.3-.2.5-.5.8-.9 1-.3.1-.8.1-1.5.1-1-.2-3.4-.3-7.1-.3-3.7 0-6.4.1-8.2.4-.9.1-1.5 0-1.8-.4-.4-.4-.5-1.4-.4-3.1.1-5.9.2-10.5.2-13.8 0-1 .2-1.7.5-2.1.2-.3 1.3-.4 3.1-.3zm-2.1 17.8c.2.2.7.4 1.3.4.9.1 1.7.1 2.4 0 3.6-.1 7.3-.1 11.1.1.9 0 1.5-.1 1.7-.3.3-.3.4-.7.5-1.3.2-3.3.3-7.6.2-12.8 0-1.1-.2-1.8-.4-2.1-.4-.3-1-.5-1.9-.5-3.6-.2-8-.2-13.1.1-.8.1-1.4.3-1.6.6-.2.3-.3.8-.3 1.4-.1 4.3-.2 8.5-.2 12.5-.1.9.1 1.5.3 1.9zm11.1-5c-3.4-.3-6.5-.1-9.2.5-.6.1-.9 0-1.1-.2-.2-.3-.1-.6.3-.9.4-.3.8-.5 1.3-.5 4.9 0 7.8.1 8.7.1 0-.4.2-.6.4-.7.3-.1.5 0 .7.2.2.1.2.3.3.6l3.8.1c.4 0 .5.2.3.5-.3.4-.6.8-.9 1.1-.3.2-.6.2-1 .1-.8-.3-1.5-.6-2.3-.7 0 .2-.1.5-.1 1 0 1.1-.7 2.1-1.9 2.8-.9.5-1.9.8-3.1.9-.4-.1-.7-.3-1-.6-.3-.3-.4-.6-.3-.8.1-.2.3-.3.6-.2 1 .3 2.1.2 3.4-.4.6-.2 1-.6 1.2-1.2 0-.2 0-.8-.1-1.7zm.3-2.1c-2.9.4-5 .5-6.2.2-.4-.2-.6-.4-.6-.6 0-.2.1-.5.4-.7.4-.3 1-.7 1.6-1.1-.7 0-1.2.1-1.6.2-.6.1-.9.1-1.1 0-.3-.2-.4-.5-.4-1-.2-2-.1-3.1.1-3.3.1-.1 1.2-.2 3.2-.3h1v-1c-1.9.1-3.3.2-4.3.5-.7.2-1.1.2-1.3 0-.1-.2-.1-.5 0-.8.1-.2.3-.4.5-.5.1-.1 1.8-.2 5.1-.2.1-.3.1-.5.3-.5.3-.3.6-.3.8 0 .1.1.2.3.3.6h5c.5 0 .7.1.7.3-.1.2-.3.5-.6.7-.3.1-.6.2-1 .1-1.1-.2-2.4-.2-3.9-.2 0 .3-.1.6-.1 1 2.5-.1 3.9 0 4.2.3.3.2.4.6.3 1-.1.5-.1 1.1-.1 1.7 0 .6-.1 1.1-.4 1.3-.3.2-.7.3-1.2.2-.2 0-.4-.1-.7-.1.5.3.8.7.9.9.1.3.1.5.1.7-.3.3-.6.5-1 .6zM137 5.9c-2 0-3.1.1-3.3.3-.1.1-.1.2-.1.5.6.1 1.7.1 3.4.1v-.9zm0 2.8v-.8c-1.7 0-2.8 0-3.2.1 0 .3.1.5.2.6.2.1.5.2 1 .2.6-.1 1.4-.1 2-.1zm.6 6.6c-1 .4-1.8.7-2.4.7-.5-.1-.7-.3-.9-.6-.1-.3 0-.5.2-.8.3-.2.7-.3 1.1-.1.6.2 1.4.2 2.3 0 .2 0 .3.1.3.3 0 .2-.3.4-.6.5zm1.1-5.7c-.7-.1-1.1-.1-1.3 0-.1.2-.3.4-.8.7-.3.2-.7.5-1.1.8v.1l.1.1c2.6 0 4-.1 4.2-.3v-.2l-1-1-.1-.2zm-.5-1.8c0 .3 0 .6-.1.8 1-.1 1.7-.1 2.2 0 .5 0 .9-.1 1-.2.1-.1.1-.3.1-.5-.4-.1-1.5-.1-3.2-.1zm0-.9c1.7 0 2.8-.1 3.3-.1 0-.4-.1-.6-.1-.7-.2-.2-1.3-.3-3.1-.3l-.1 1.1zM154.7 11.6c-.7.1-1.2 0-1.3-.2-.2-.4-.1-.8.4-1.3s1-.6 1.6-.2c.6.3 1.2.5 1.9.7.4.1.6.3.7.6 0 .2 0 .4-.2.4-.3.1-.5.1-.9.1-.4-.1-1.2-.1-2.2-.1zm4.4 5c.5-.3.8-.2.9.1.1.3-.2.7-.7 1-1.6 1.3-2.7 2.1-3.3 2.7-.6.4-1 .5-1.4.2-.3-.3-.4-.7-.5-1.1-.1-.5.2-1 .9-1.2.6-.3 2-.8 4.1-1.7zM156 5.2c-.7-.1-1.1-.4-1.2-.7-.1-.4.2-.8.8-1.1.6-.3 1.1-.2 1.5.3.6.5 1.2 1 1.9 1.4.3.2.5.5.5.8 0 .2-.1.4-.3.4-.3 0-.6-.1-.9-.2-.4-.3-1.2-.6-2.3-.9zm12.1 6.3c2 0 5 .3 8.8.8.4.1.5.2.3.6-.7 1.2-1.4 1.6-2.2 1.3-1.6-.8-3.1-1.2-4.4-1.3-4.8-.5-8.4-.1-10.7 1.2-.6.3-1.1.3-1.4-.1-.3-.4-.2-.9.3-1.4.3-.5.8-.7 1.2-.6.5 0 1.5 0 3.1-.2 1.2-.1 2.4-.2 3.5-.2v-.3-3.5c-1.3-.1-2.7.1-4.1.4-.7.2-1.1.1-1.4-.1-.3-.3-.3-.6 0-1 .3-.5 2.2-.7 5.4-.6 0-2.2-.1-3.5-.2-3.9-.1-.5-.1-.9.1-1.2.2-.3.4-.4.7-.4.2 0 .5.2.8.5.2.2.3.6.2 1-.1.9-.2 2.3-.2 4 3.2 0 4.9.2 5.1.5.1.1.1.4 0 .7-.1.2-.2.4-.4.5-.2.1-.4.1-.6.1-1.8-.4-3.1-.5-4-.5 0 1.6 0 2.7.1 3.4v.3zm0 8.9c-1.5 0-2.9.1-4.1.2-.7.1-1.2 0-1.5-.2-.3-.2-.5-.5-.4-.9.1-.4.6-1.2 1.7-2.4 1.5-1.7 2.3-2.8 2.6-3.3.2-.3.4-.4.6-.5.4 0 .6.1.8.4.3.4.7.8 1.2 1.1.9.5 2 1.5 3.3 2.9.7.8 1 1.3.9 1.7-.1.3-.2.5-.4.7-.2.1-.5.2-.9.2-.5 0-1.8 0-3.8.1zm.7-4.1c-.7-.4-1.2-.6-1.6-.6-.2 0-.6.4-1.3 1.2-1 1.1-1.4 1.8-1.2 2.1.1.1 1.2.2 3.4.2s3.4-.1 3.4-.2c.1-.1-.2-.5-.8-1.2-.6-.7-1.2-1.2-1.9-1.5zM189.7 10.2c-2.2 3.1-4.7 5.6-7.5 7.5-.5.3-.9.4-1.2.2-.4-.2-.7-.5-.7-.8 0-.3.2-.6.4-.8 3.4-2.2 6-4.4 7.7-6.6.1-.1.1-.2.2-.2 1.5-2.2 2.1-4 1.9-5.6 0-.3 0-.6.2-.7.2-.3.5-.3.8-.2.5.2.8.5.9.9V4c.2.7-.4 2.3-1.8 4.8.5.6 1.5 1.4 2.8 2.5 4.2 3.4 7.7 5.4 10.4 6 1 .2 1.2.5.6 1-.3.3-1 .6-2.2.9-.8.3-1.6 0-2.2-.6-5.6-5.3-9-8-10.3-8.4z"/><g><path d="M111.5 41.7c-3.2.1-6 .3-8.4.6-1.6.2-2.6 0-3.2-.4-.6-.5-.8-1.2-.6-2 .2-.8 1.6-2.3 3.9-4.4 3.3-3.1 5.3-5.1 6-6 .4-.5.9-.8 1.4-.8.7 0 1.2.3 1.5.8.5.8 1.3 1.5 2.3 2.1 1.7 1 3.8 2.8 6.2 5.5 1.2 1.5 1.8 2.6 1.7 3.3-.1.6-.4 1-.8 1.3-.5.3-1.1.4-2 .3-1.3-.1-4-.2-8-.3zm7.2 14.5c-.8-.2-3.1-.2-7-.3-3.3-.1-5.8.1-7.6.5-1.2.3-1.9.3-2.3 0-.6-.4-.9-1.1-.9-2.2-.1-1.8-.2-3.6-.2-5.3-.1-1.5 0-2.4.5-2.8.3-.3.8-.4 1.4-.4 12-.3 18.4-.1 19.1.5.5.5.8 1.2.7 2.1-.2 1.5-.3 3-.3 4.7 0 1.4-.2 2.3-.7 2.7-.8.6-1.6.7-2.7.5zm-8.5-9c-4.3.1-6.7.4-7.2.8-.2.2-.3 1.4-.1 3.7.1 1.3.2 2.1.4 2.2.3.2 1 .3 2.1.3 5.8-.2 9.7-.3 11.7-.2 1.1.1 1.9-.1 2.3-.4.3-.3.4-1.5.4-3.4 0-1.5-.2-2.3-.4-2.5-.7-.4-3.7-.6-9.2-.5zm3.8-13.7c-1.5-1-2.6-1.5-3.4-1.5-.5 0-1.8.9-3.9 2.8-3 2.8-4.3 4.5-3.8 5.1.2.3 3.1.3 8.4.2 5.3.1 8.1-.1 8.3-.5.1-.3-.4-1.3-1.7-2.7-1-1.3-2.4-2.4-3.9-3.4zM143.1 50.1c-.1-.3-.1-3 0-8.2-3.4 0-5.8.2-7.2.6-1.1.3-1.7.2-2-.2-.2-.4-.2-1 .2-1.6.6-.8 1.3-1.2 2-1.1 1.5.2 3.6.2 6.3 0h.7c0-2-.1-4.3-.3-6.7 0-1 .2-1.6.9-1.7.7-.1 1.2.1 1.6.7.3.7.4 1.5.3 2.4-.2 1.2-.3 2.5-.4 3.8-.1 4.6-.1 8 0 10.2 0 .7 0 1.2-.1 1.6h.3c.7 0 1.1.1 1.2.2.2.3.2.7-.2 1-.5.4-1.3.7-2.3.8-2.5.3-5.6 1.1-9.4 2.4-.7.3-1.3.2-1.6-.2-.3-.5-.1-1.1.7-1.9.9-.9 1.9-1.3 3.1-1.3.7 0 1.6-.1 2.4-.3 1.3-.3 2.5-.4 3.8-.5zm9.7-8c-.1 2.2 0 4.2.2 6.1 0 1 .6 1.7 1.6 2 .1 0 .2 0 .3.1 4.2 1.5 7.7 1.6 10.5.4.8-.4 1.1-.1.8.7-.3 1.1-.9 2-1.7 2.7-.9 1.1-2.1 1.3-3.6.7-3.6-1-6.6-2.2-9.1-3.7-.7-.4-1-2.5-.9-6.2.1-7.4.1-11.5-.1-12.5-.1-.7 0-1.2.5-1.5.5-.3 1-.1 1.5.5.7.9 1 1.7.7 2.5-.5 1.5-.7 3.4-.7 5.7.2-.1.4-.1.6-.1.5.1 1.6.1 3 .1 3.9.1 6 .2 6.4.5.3.2.4.5.3.9-.1.5-.4.9-.8 1.1-.5.3-1.1.3-1.8.2-.7-.2-2-.4-3.8-.5-1.5 0-2.9.1-3.9.3zM186.7 33.2c.1-1.1-.1-2.1-.5-3-.4-1-.6-1.7-.4-2 .4-.5 1.1-.5 2-.2.8.3 1.1 1.1 1 2.3-.1.8-.3 1.8-.6 2.9 5.7.1 10.8.2 15.1.4.7.1 1.1.2 1.2.5 0 .3-.3.8-1 1.7-.3.3-.7.6-1.3.9-.5.2-1.2.1-1.9-.1-1.8-.8-4.3-1.3-7.6-1.6-7.7-.7-13.7-.2-18.1 1.4-1.2.4-2 .5-2.3.4-.3-.2-.5-.5-.6-.9 0-.5.3-1.1.8-1.6s1.2-.8 1.9-.9c3-.2 7.1-.2 12.3-.2zm0 8.5c-1.7-.2-3.3-.1-4.8.4-.6.1-.9.7-.9 1.9 0 2.4-.9 4.7-2.7 7-1.7 1.8-2.9 2.7-3.7 2.7-.3 0-.7-.2-1.1-.7-.2-.2-.2-.5-.2-.9.1-.3.4-.6.9-1 3.2-2.3 4.8-4.5 4.9-6.6v-.3c-.2-2.3-.2-3.7 0-4 .3-.4 1.2-.5 2.6-.4h5c0-2.2.1-3.3.4-3.5.6-.5 1-.5 1.4 0 .4.5.6 1.3.5 2.3 0 .4-.1.8-.1 1.3h4.7c1.9 0 3 .2 3.3.5.2.3.4.6.5.9 0 .3 0 .6-.2.9-.3.4-.4.8-.4 1.3 0 3.5.1 5.9.5 7.1.2.8.2 1.3 0 1.8s-.5.8-.9.9h-.3c-1-.5-1.4-3.5-1.4-9 0-1-.1-1.7-.4-2-.5-.5-2.3-.7-5.4-.6-.1 4.9-.1 8.9 0 12.1.1 1.5-.1 2.4-.6 2.9-.3.4-.8.3-1.3-.2-.1-.1-.2-.2-.2-.4-.1-.2-.1-4.9-.1-14.4zM217 38.8c0-1-.1-1.8-.3-2.2-1.8.2-3.1.4-3.9.6-1.2.3-2 .3-2.2 0-.3-.4-.3-.8 0-1.3.2-.4.5-.6.9-.8.3-.2 4.1-.3 11.4-.3.8 0 1.2.2 1.2.5-.1.4-.5.8-1.2 1.3-.4.3-1 .3-1.7.2-.6-.1-1.2-.1-1.9-.1-.2.5-.3 1.1-.3 1.7v16.4c0 .8-.1 1.5-.4 2-.2.3-.4.5-.6.5-.3 0-.6-.2-.7-.5-.3-.9-.5-2.1-.4-3.5 0-3.2.1-6.6.1-10.4-.2.3-.4.6-.6 1-1.9 3-3.3 4.9-4.3 5.4-.6.4-1.2.6-1.6.5-.5-.2-.8-.5-.8-1s.2-1 .7-1.3c3.3-2.8 5.4-5.6 6.5-8.2-.1-.3 0-.4.1-.5zm-1.6-9.9c.7.2 1.3.2 1.9.3.7.1 1.7.1 3 .2.8 0 1.3.1 1.4.4.2.4.2.7-.1 1.1-.3.4-.8.5-1.5.4-2.6-.2-4.3-.1-5.2.1-.9.2-1.5.1-1.7-.3-.2-.4-.1-.9.3-1.4.7-.6 1.3-.9 1.9-.8zm5 13.4c-.5-.6-.7-1.2-.4-1.8.4-.6.9-.7 1.5-.4.5.3.8.9.9 1.8.1.6.2 1.1.4 1.6.2.7.3 1.2.3 1.7 0 .3-.1.4-.4.4-.2-.1-.4-.4-.7-1-.6-1.1-1.2-1.8-1.6-2.3zm13.8-13c5.3.2 8.2.3 8.5.3.5 0 .7.2.4.7-1 1.6-2 2.1-2.9 1.8-.9-.4-1.8-.7-2.7-.9-3.9-.7-8.1-.5-12.6.4-.8.2-1.4.1-1.6-.3-.2-.4-.1-.9.4-1.3.6-.4 1.3-.7 2.1-.7h8.4zm3.9 25.7c-.6-.1-2.3-.2-5.2-.2-2.4-.1-4.3.1-5.7.4-1 .2-1.7.2-2 0-.5-.3-.7-.9-.7-1.9-.1-2.4-.1-4.8-.1-7.1-.1-1.6 0-2.6.4-2.9.2-.2.6-.4 1.2-.4 9.1-.3 14-.1 14.7.4.5.5.7 1.1.6 1.9-.2 2.2-.3 4.5-.3 7 0 1.2-.2 2-.6 2.3-.7.5-1.4.7-2.3.5zm-6.4-10.7c-3.3.1-5.1.2-5.4.5-.2.2-.3 1.1-.3 2.8 1 .1 3 .2 5.9.2 0-1.7-.1-2.8-.1-3.3l-.1-.2zm.1 8.5c.1-.5.1-1.6.1-3.3-3.1.1-5.1.1-5.9.2 0 1.9.2 2.9.6 3.2.3.2.8.3 1.6.3 1.3-.1 2.5-.1 3.6-.1v-.3zm4.3-12.4c-.4-.1-1.6-.1-3.5-.1-1.6 0-2.9.1-3.7.3-1 .2-1.6.2-1.9 0-.5-.3-.7-.9-.7-1.8-.3-2.8-.2-4.4.2-4.7.2-.2.6-.4 1.1-.4 6.6-.3 10.2-.2 10.8.4.5.4.7 1 .6 1.8-.1.6-.2 1.2-.3 1.9 0 1.1-.1 1.9-.6 2.2-.4.4-1.1.6-2 .4zm-4.2-5.2c-2.3.1-3.5.2-3.8.4-.1.1-.1.7 0 1.8.1.7.2 1 .3 1.1.2.1.5.2 1.1.2 3-.1 5.1-.2 6-.2.6 0 1-.1 1.2-.2.2-.2.2-.8.2-1.6 0-.7-.1-1.1-.2-1.2-.4-.3-2-.4-4.8-.3zm2 9.2c-.1.6-.2 1.7-.1 3.4l5.4-.2c0-1.7-.2-2.7-.5-2.9-.4-.3-2-.4-4.8-.4v.1zm0 8.7c1.4-.1 2.4-.1 3.1 0 .8 0 1.4-.1 1.7-.3.3-.4.5-1.4.5-3-.8-.2-2.6-.3-5.4-.3 0 1.9 0 3.1.1 3.6zM258.7 37.7h-.8c-2.7.3-5 .7-6.9 1.3-.5.1-.9 0-1.1-.4-.2-.4-.1-.9.1-1.4.4-.7.9-1 1.5-1 1.5 0 3-.1 4.5-.2.6-.2 1.7-.3 3.3-.2.2-.9.2-2.1 0-3.8-1 0-1.8 0-2.5.2-.5.1-.9.1-1.2 0l-.6 1.2c-.3.7-.6 1-.9.9-.3-.2-.3-.6 0-1.2.2-1.9.3-3.2.2-3.9.1-1.2.6-1.5 1.6-.9.7.5.9 1.1.7 1.8.2-.1.6-.1 1.3-.1 4.7 0 7.1.2 7.5.5.2.3.2.6.1.9-.1.4-.5.5-1.3.5-1-.1-1.9-.1-2.8 0-.1.8-.1 1.6-.1 2.5 0 .4-.1.9-.1 1.3 3.9 0 6.1.2 6.5.7.2.3.2.6 0 .8-.3.3-.8.4-1.4.4-1.7-.2-3.5-.2-5.6-.2-1.4 2.8-3.8 5.7-7.3 8.6-.6.5-1.3.6-2.2.2-.8-.3-1.2-.7-1.2-1 0-.4.4-.8 1.2-1.1 3.7-1.6 6.3-3.8 7.5-6.4zm1.7 6.9h.6c9.7-.5 15-.1 15.9 1.3.2.3.1.8-.2 1.5-.3.8-.5 1.8-.6 3.2-.1 1.5-.4 3-.7 4.3-.3.8-.6 1.3-1.1 1.6-.5.2-1 .3-1.6.1-1.5-.4-3.4-.7-5.6-.6-2.5.1-4.2.3-5.2.7-.5.3-.9.3-1.2 0-.4-.3-.7-.9-.9-1.8-.6-4.6-1-7.2-1.2-8-.2-.7-.2-1.2-.1-1.5.3-.5 1-.8 1.9-.8zm14 4.4c0-1.5 0-2.3-.3-2.5-.3-.2-.9-.3-1.9-.3-7.2-.1-10.9.1-11.2.6-.1.3-.2 1.1-.1 2.3 1.1.1 3.3.2 6.7.2 3.8-.2 6-.2 6.8-.3zm-6.8 1.9c-3.4 0-5.6.1-6.6.3.2 1.9.4 3 .7 3.2.1.1.5.1 1.2 0 3.5-.2 6.5-.3 9.1-.1.8.1 1.3 0 1.5-.1.3-.2.5-1.3.8-3-1-.2-3.2-.3-6.7-.3zm-5.4-9.3c-.7-.3-1.1-.8-1.1-1.5.1-.7.5-1 1.2-1 .6.1 1.1.4 1.6 1.1l.9 1.2c.4.4.7.9.8 1.3.1.3 0 .4-.2.5-.2.1-.5-.1-1.1-.5-.9-.7-1.6-1-2.1-1.1zm16.2-1.2c-2.1-.5-4.2-.5-6.4.1-.8.2-1.3.2-1.6 0-.4-.3-.7-.8-.6-1.5 0-1.8-.2-3.6-.6-5.3-.2-.7-.2-1.3-.1-1.6.2-.4.7-.6 1.3-.6h3.5c3.6-.2 5.8-.1 6.8.3.4.2.7.5.8.7.1.4.1 1.2-.3 2.3-.3.9-.6 2.2-.7 3.7-.1.8-.3 1.3-.6 1.4-.5.5-1 .6-1.5.5zm-5.1-7.3c-.9 0-1.5.2-1.9.5-.1.2-.1 1 0 2.4.1 1.1.3 1.8.6 2.1.2.2.7.3 1.5.2 1.3-.1 2.7-.2 4.2-.2.5 0 .8-.1.9-.3.1-.2.2-.4.2-.7l.1-1.7c.1-1.2.1-1.8 0-1.9-.2-.3-.8-.5-1.9-.5-1.3 0-2.5 0-3.7.1zM291.4 36.5c-.9.9-1.6 1.5-2.1 1.7-.7.3-1.3.3-1.7-.1-.4-.3-.6-.6-.7-1.1 0-.5.2-.9.7-1.1 1.6-.8 3.1-1.8 4.5-3.2 1.4-1.5 2.2-2.6 2.5-3.4.3-.7.6-1.1.8-1.2.4-.1.6 0 .8.4.2 1-.7 3-2.9 5.9.2.5.3 1.1.3 1.8-.3 4.7-.4 10.6-.1 17.6.1 1.4 0 2.3-.5 2.8-.3.4-.8.3-1.3-.2-.3-.3-.4-1-.3-2.1.1-5.7.1-11.6 0-17.8zm18.4 8.7c-1.4 0-2.8.1-4.3.3-.5 3.9-1.7 6.8-3.6 8.7-1.7 1.5-2.9 2.1-3.8 1.9-.3-.1-.5-.3-.7-.6-.2-.4-.3-.8-.2-1.1 0-.2.3-.4.7-.6 1.1-.4 2.1-1.1 3.1-2.1 1.4-1.4 2.3-3.4 2.7-6.1-1.7.2-2.9.4-3.4.7-1 .5-1.7.5-2-.2-.2-.4-.2-1.2 0-2.2.2-1.1.4-2.4.5-3.9 0-.6.1-1.1.3-1.5.1-.3.6-.3 1.2-.1.1 0 1.4 0 3.9-.1l.1-3.5c-1.1.1-1.9.2-2.2.3-1.2.3-2 .4-2.6.2-.5-.3-.8-.5-.8-.7 0-.4.3-.8 1-1.1.4-.2 1.9-.2 4.6-.2 0-3 0-4.6.2-4.7.2-.2.4-.3.7-.3.4 0 .7.3.9.9.2.6.3 1.3.1 2.1-.1.6-.1 1.3-.1 2.1h3.6c-.1-2.8 0-4.3.3-4.5.6-.5 1-.5 1.3 0 .4.5.6 1.2.5 2.1 0 .8-.1 1.5-.1 2.3 2.4-.1 4 0 4.7.3.8.5 1 1 .7 1.6-.2.6-.3 1.6-.5 2.9-.1.9-.3 1.5-.7 1.8-.3.3-.7.4-1.2.3-.9-.1-2-.2-3.2-.2v3.9h.3c4.4 0 7.1.4 7.9 1.3.4.4.6.8.6 1.3v.1c-.4 2.2-1.2 3.8-2.6 4.9-.6.6-1.1.8-1.4.5-.3-.3-.2-.7.1-1.2.7-1.3 1-2.6 1-3.8 0-.5-.3-.9-.9-1-.6-.3-1.8-.5-3.7-.6-.5-.1-.9-.1-1.3 0 0 4.2 0 7 .1 8.6.1 1.4 0 2.3-.5 2.8-.3.4-.8.3-1.3-.2-.3-.3-.4-1-.3-2.1.2-3.2.2-6.3.3-9.3zm-5.9-1.3c0-1.1.1-2.4.2-3.8-.8 0-1.5.1-2.1.3-.7.1-1.1.3-1.2.6-.3 1.1-.5 2-.5 2.7 0 .4.4.6 1.2.5.7-.2 1.5-.2 2.4-.3zm5.9-3.4v-.6c-1.1-.1-2.3 0-3.8.1-.1 1.1-.2 2.3-.3 3.5v.4c1.2-.1 2.6-.1 4.2-.1v-3.3zm-.1-2.3v-3.6c-1.2-.1-2.4 0-3.6.1 0 1.2-.1 2.4-.1 3.6 1.2-.2 2.5-.2 3.7-.1zm2-3.6c0 1.1-.1 2.3-.1 3.6h1.5c1 0 1.6-.3 1.7-.8.1-.7.2-1.4.1-2.1 0-.3-.3-.5-.7-.5-.8-.2-1.7-.2-2.5-.2zM338.4 49.8c.4 1.7.6 3.1.3 4.2-.1.9-.4 1.6-1 1.9-.8.8-2.2 1.1-4 1-1.8-.2-2.8-.7-3.2-1.4 0-.3.1-.5.4-.5.3.1.9.1 1.9.1 1.8 0 3-.4 3.6-1.3.6-.7.7-1.9.5-3.7-.6.1-2.5.5-5.5 1.4-.6.2-1.1.1-1.3-.2-.3-.4-.1-.9.6-1.4.1-.1.2-.2.3-.2.5-.4 2.4-.8 5.6-1.1-.4-1.2-.9-2-1.5-2.2-.2-.1-.4-.4-.3-.7 0-.3.3-.4.7-.5.5-.1 1 .2 1.5.7 0-.1.1-.1.3-.2.7-.3 1.2-.7 1.7-1.1.3-.4.5-.7.4-1l-.1-.2c-1-1-2.6-.9-4.6.3-.9.4-1.5.5-2 .2l-.1-.1c-2.8 4-4.7 6.1-5.8 6.3-.3 0-.7-.1-1-.3-.4-.4-.5-.6-.4-.8.2-.5.7-1 1.5-1.4 3.6-3.3 5.7-5.9 6.3-7.8-2 .1-3.5.4-4.6.7-1.2.3-2 .3-2.2 0-.3-.4-.3-.8 0-1.3.1-.3.3-.4.4-.5.4-.4 2.1-.5 4.9-.5 2.1-.1 4.3-.1 6.5-.1l.3-.3c1.4-2.1 2.5-3.9 3.3-5.4.6-1 1.2-1.1 1.8 0 .5.8.4 1.5-.2 2-.5.4-1.1 1-1.7 1.8l-2 2c1.1-.1 2.2-.1 3.3-.1.8 0 1.2.2 1.2.5-.1.4-.5.8-1.2 1.3-.4.3-1 .3-1.7.2-1.6-.2-3.7-.3-6.3-.2 0 0-.2.4-.4 1l-.7 1.2c1.2-.4 3.3-.4 6.3.1 1.2.3 1.8.8 1.7 1.7 0 .4-.4 1-1.3 1.6-1 .8-2.1 1.4-3.1 1.8 0 .2.1.4.2.6l.2.7c1.3-.2 2.5-.3 3.7-.3.5 0 .9.1 1 .2.2.3.1.5-.2.8-.4.3-1.1.5-1.8.5-.8-.2-1.5-.1-2.2 0zm-5.2-16.5c-.7-.6-1.5-1.2-2.6-1.8-.4-.2-.6-.4-.5-.6.1-.3.3-.4.7-.3.9.2 2.1.7 3.6 1.6 1.2-1.3 2-2.3 2.4-3 .3-.5.6-.6 1-.3s.7.7.9 1.2c.2.5 0 1-.6 1.3-.2.1-.9.7-2.1 1.8 1.4 1 2.2 1.7 2.2 2.1 0 .4-.2.8-.6 1.1-.3.3-.7.2-1.3-.4l-1.7-1.7c-2.2 1.5-3.7 2.4-4.6 2.7-.5.2-.8.1-.9-.1-.1-.3 0-.5.3-.6-.1-.1 1.2-1.1 3.8-3zm18.4 16.6c-2.2 2.6-4.8 4.4-8 5.4-.6.1-1.1 0-1.4-.2-.4-.2-.6-.4-.6-.7-.1-.9.7-1.5 2.3-1.9 2.2-.5 4.3-1.8 6.4-4-1.3-1.3-2.6-2.1-3.9-2.3-.8-.2-1.1-.6-.9-1.3.1-.5.5-.8 1.1-.9.3-.1.7-.1 1 0 .3.1 1.5 1.1 3.7 3.1.9-1.5 1.2-3 1.1-4.7-.1-.6 0-1 .3-1.1.3-.2.6-.3 1-.3.3.1.5.2.7.5.2.3.2.8 0 1.3-.1.3-.2.8-.3 1.3-.2 1.2-.7 2.6-1.5 4.1.3.2.6.5.9.8 2.3 2.1 4.6 3.7 6.6 4.7.6.3.7.6.2 1.1-.5.5-1.1.8-1.9.9-1.4.3-2.4-.1-3-.9-1.5-2-2.8-3.7-3.8-4.9zm-4.7-9.7c-1.4 2.2-2.4 3.4-2.9 3.8-.4.2-.7.1-.9 0-.2-.3-.1-.8.5-1.6 3-3.8 4.4-7.4 4.2-10.8 0-.6.1-1 .6-1.1.4 0 .8.2 1.3.6.4.4.6.9.7 1.3.1.4 0 .8-.1 1-.4.6-1 2.1-2 4.4h.1c.4.1.9.1 1.3.1 2.2-.2 4.9-.2 8.1-.2.6 0 .8.3.6.9-.2.6-.5 1.1-1 1.4-.5.4-1.1.4-1.9.1-.4-.2-.9-.4-1.5-.5-2.4-.3-4.5-.2-6.3.5-.3 0-.6.1-.8.1zM382.7 44.1c-1-.1-1.6 0-2 0 0 .2-.2.4-.4.6-4 3.7-8.3 6.1-12.7 7.2-.8.2-1.5.1-1.9-.4-.4-.4-.6-.9-.7-1.4 0-.7.4-1 1.2-.9.8.1 1.9 0 3.2-.2h.2c4.1-1 6.9-2.6 8.3-4.5 0-.1.1-.2.2-.2-1.7.1-3.2.3-4.5.6-1.7.3-2.7.3-2.9.1-.3-.4-.3-.8 0-1.3.4-.5 2.4-.8 5.9-.9 0-5 0-8.1-.1-9.2-1 .1-1.9.3-2.6.5-.9.2-1.6.1-1.9-.2-.4-.4-.4-.8 0-1.3.3-.5 1.8-.7 4.4-.8-.1-1.5-.1-2.3 0-2.5.2-.4.5-.5.9-.5.3 0 .7.2 1.1.6.2.3.2 1.1.1 2.3 2.3-.1 5-.1 8 0 0-.7 0-1.1-.1-1.4-.1-.7 0-1.2.2-1.6.2-.3.6-.5 1-.5.3 0 .6.2 1 .7.2.3.3.8.2 1.3-.1.4-.2.9-.2 1.5 2.7.1 4.2.3 4.4.6.1.2.1.5 0 .9-.1.3-.3.6-.6.7-.3.2-.8.2-1.2.2-1-.2-1.9-.4-2.8-.5-.2 4.8-.3 7.6-.3 8.2 0 .4 0 .7-.1.9 4.2.1 6.4.3 6.7.7.1.2.1.4 0 .9 0 .3-.2.5-.6.7-.4.2-.9.3-1.4.2-3.2-.7-5.3-1-6.1-1 5.2 3.3 9.1 5.5 11.8 6.8.7.3.8.8.4 1.3a5 5 0 0 1-1.6 1.1c-1 .3-1.9.1-2.7-.7-4.3-4.6-8.1-7.3-11.2-8.2-.3-.1-.5-.2-.6-.4zm.7 9.6c1.3-.2 4.5.1 9.5.9.5.1.6.3.4.7-.9 1.5-1.8 2.1-2.7 1.7-1.8-.9-3.9-1.4-6.5-1.6-4.7-.2-8 .2-9.9 1.4-.8.4-1.4.4-1.9-.1-.3-.5-.2-1.1.3-1.8.4-.5.9-.7 1.4-.7.5 0 1.7-.1 3.5-.2 1.4-.2 2.7-.3 4-.2-.1-.5-.1-1.1 0-1.8v-.8c-1.5 0-2.7.1-3.9.3-1 .2-1.6 0-1.9-.5-.2-.4-.1-.8.3-1.2.4-.4 2.3-.5 5.5-.4 0-.6-.1-1.3-.2-2 0-.8.2-1.3.7-1.4.6-.1 1 .1 1.3.5.3.6.4 1.3.3 2.1-.1.3-.1.6-.1.9 3.4-.1 5.3 0 5.7.4.2.3.2.6.1.9-.1.4-.5.5-1.3.5-1.7-.1-3.2-.1-4.6-.1v2.5zm-1.2-14.5c1.9 0 3.2-.1 3.9-.1l.1-1.9c-.5-.1-1.9-.2-4-.2-2 0-3.4.1-4 .2 0 .7-.1 1.3 0 1.9.6.1 2 .1 4 .1zm0-3.9c2.2 0 3.6-.1 4.1-.1v-1.8c-2.9-.3-5.6-.4-8.1 0v1.8c.8.1 2.1.1 4 .1zm3.7 7.4c0-.4 0-.9.1-1.6-.6-.1-1.9-.2-3.8-.2-2.2 0-3.5.1-4 .2 0 .8.1 1.3.1 1.6.9-.1 1.9-.1 2.9-.1l4.7.1zM419.5 31.3c-1-.3-2 .1-3.1 1.1-1 1-2.9 2.4-5.7 4.3-2.9 2-4.6 3-5 3.2-.3.1-.6.1-.9 0-.3-.1-.7-.4-1.1-.9-.4-.4-.6-.8-.5-1.1.1-.3.3-.5.8-.7 2.2-.7 4.9-2 8.1-4 3.2-2 5-3.4 5.3-4.2.2-.5.4-.9.6-1.1.2-.3.5-.4.9-.5.7 0 1.1.5 1.4 1.4.1.5 1.1 1.3 3.2 2.5 2.7 1.6 5.3 2.9 7.7 3.8 2.9 1.1 4.8 1.7 5.8 1.7.5 0 .7.2.6.5-.2.5-1 1.1-2.3 1.7-.5.2-.9.3-1.2.4-.9.1-3-1.1-6.3-3.6-3.9-2.5-6.6-4-8.3-4.5zm-.2 22.2v-.1c.1-.5.1-3 0-7.5-2.8.1-4.8.3-6.2.7-1.2.3-2 .3-2.2 0-.3-.4-.3-.8 0-1.3.1-.3.3-.5.6-.6.3-.3 2-.5 5-.5.2-1.5.2-3.6 0-6.2v-.1c-.9.1-1.7.1-2.4.2-1 .2-1.6 0-1.9-.5-.2-.4-.1-.8.3-1.2.4-.3 1.2-.5 2.3-.5l9.2.1c1.2-.1 1.9.1 2.2.4.2.3.2.6.1.9-.1.4-.5.5-1.3.5-2.4-.1-4.5-.1-6.4-.1v.2c-.2 1.5-.2 3.5 0 6.2h10.2c.8 0 1.2.2 1.2.5-.1.4-.5.8-1.2 1.3-.4.3-1 .3-1.7.2-1.5-.2-3.3-.3-5.5-.3v.2c-.3 1.6-.3 4 0 7.4 4.1 0 8 .1 11.8.4.7.1 1.1.2 1.2.5 0 .3-.3.8-1 1.7-.3.3-.7.6-1.3.9-.5.2-1.2.1-1.9-.1-2-1-5.2-1.6-9.7-1.7-4.9.1-8.4.6-10.7 1.5-1.2.4-2 .5-2.3.4-.3-.2-.5-.5-.6-.9 0-.5.3-1.1.8-1.6s1.2-.8 1.9-.9c2.1 0 5.3-.1 9.5-.1zm-6.4-2.3c-.6-.1-.9-.5-.7-1.3.1-.8.4-1.3.9-1.5.4-.2.9-.1 1.5.4.2.2.5.5 1 .8.9.7 1.5 1.1 1.6 1.3.2.3.1.5-.2.6-.2.1-.8-.1-1.9-.3h-2.2zm9.3-9.1c-.5-.2-1-.2-1.4-.3-.5-.1-1-.2-1.3-.3-.3-.1-.4-.3-.3-.5.1-.3.5-.5 1.2-.5.7-.2 1.4-.4 2-.7.9-.3 1.6-.1 2 .5.3.6.2 1-.3 1.4-.7.3-1.3.5-1.9.4zM426 48c.5-.4 1-.3 1.4.4.4.7.6 1.2.4 1.7-.2.5-.6.7-1.3.8-.3 0-.7 0-1.3.2-1.1.3-1.8.4-2 .3-.3-.1-.4-.3-.3-.5.1-.2.6-.5 1.6-1.2L426 48zM454.2 32.8c.3-.1 2-.1 5.1-.1 3.2 0 5 .2 5.4.4.2.2.2.5.1.9-.1.3-.5.5-1.2.5-4-.2-6.8-.1-8.4.2-.9.2-1.5.1-1.8-.4-.2-.3-.2-.6 0-.9-5.2 3-8.5 4.4-9.8 4.1-.3-.1-.6-.4-.9-.8-.2-.6-.3-1-.1-1.1.3-.3.8-.5 1.6-.7.9-.1 2.5-.6 4.8-1.5 1.5-.6 3.3-1.5 5.3-2.7 2.1-1.3 3.4-2.2 3.9-2.8.3-.4.6-.6.9-.7.3 0 .6.1.7.3.1.1.1.2.1.4.9.8 2.9 1.9 5.8 3.2 4.2 2 7.5 3 9.9 3.1 1.1 0 1.4.3.9 1l-.1.1c-2 1.6-3.5 1.9-4.7 1.1-7.3-4.4-11.7-6.6-13.2-6.6l-4.3 3zm-3.2 3.8c2.9-.2 5.6-.3 8.1-.3 6.1-.1 9.5.4 10.2 1.4.2.3.1.8-.2 1.4-.2.5-.4 1.1-.6 1.9-.4 2.3-1 3.7-1.8 4.1-.4.2-.9.2-1.5.1-1.8-.5-4-.8-6.7-.7-3 .1-5.1.4-6.2.9-.4.2-.8.2-1.1 0-.4-.3-.6-.8-.8-1.7-.5-2.8-.9-4.5-1.1-5-.2-.7-.3-1.2-.1-1.4.4-.5.9-.7 1.8-.7zm7.4 1.4c-4.2-.1-6.5.1-6.8.6-.1.2-.1.4-.1.7.1 2.2.4 3.5.8 3.9.2.1.5.1 1.1 0 1.8-.1 3.4-.2 5-.2v-.2c.1-1.5.1-3.1 0-4.7V38zm5.1 18.7c-.5-.1-1.8-.1-4.1-.2-1.9 0-3.4.1-4.5.4-1 .2-1.7.2-2 0-.5-.3-.7-.9-.7-1.9-.1-1.9-.1-3.7-.1-5.5-.1-1.4 0-2.3.4-2.6.2-.2.6-.4 1.2-.4 7.5-.3 11.7-.2 12.3.4.5.5.7 1.1.6 1.9-.2 1.6-.3 3.3-.3 5.2 0 1.2-.2 2-.6 2.3-.6.4-1.3.6-2.2.4zm-10.2-15.6c-.3-.2-.4-.5-.4-.9s.3-.7.7-.9c.4-.2.9-.2 1.3.1.5.2.9.4 1.4.5.5.1.8.3.8.5 0 .3-.2.5-.6.5-.8.1-1.4.2-1.7.4-.6.2-1 .1-1.5-.2zm5.2 6.9c-2.6.1-4.1.2-4.4.5-.1.1-.2.8-.2 1.9 1.7.3 5.2.3 10.5 0-.1-1.2-.2-1.9-.4-2.1-.3-.3-2.2-.4-5.5-.3zm5.6 6.5c.2-.3.4-1 .4-2.1-.1-.1-.3-.1-.6-.1-2.7-.3-6-.3-9.9.1.1 1.4.2 2.1.4 2.3.2.2.6.3 1.3.2 3.6-.2 5.9-.2 7.1-.2.6 0 1-.1 1.3-.2zm-3.8-13.9c0 1.3 0 2.1.1 2.5 1.5 0 2.9 0 4.3.1.8 0 1.2 0 1.4-.1.6-.5.9-1.8 1-3.9 0-.4-.1-.6-.3-.8-.4-.3-2.6-.4-6.3-.3-.2.4-.2 1.2-.2 2.5zm4.8-1.2c.3.2.5.5.5.8 0 .4-.1.7-.5.9-.4.3-.9.4-1.4.2-.6-.2-1.1-.2-1.7-.2-.5-.1-.8-.2-.9-.4 0-.3.1-.5.5-.6.9-.2 1.6-.5 1.9-.7.5-.3 1-.3 1.6 0z"/></g><g><path d="M101.4 70.7c0-1.5-.6-2.4-1.8-2.5l-.5-.1c-.2 0-.2-.1-.2-.3 0-.2.1-.3.3-.3H101.6c.5 0 1.5-.1 2.9-.2.9-.1 1.6-.1 2.2-.1 1.5 0 2.8.3 3.7 1 .9.7 1.4 1.6 1.4 2.8 0 1.3-.6 2.3-1.7 2.8-.3.1-.4.2-.4.3 0 .1.1.2.4.3.9.2 1.6.6 2.1 1.3.5.7.8 1.5.8 2.5 0 1.5-.5 2.7-1.4 3.6-1 .9-2.3 1.3-3.9 1.3l-2.2-.1h-1.7c-1.1 0-2 0-2.8.1h-.7c-.2 0-.3-.1-.3-.3 0-.2.1-.3.3-.3.9-.2 1.3-.9 1.3-2.4v-9.4zm2.5-1V73c0 .5.1.8.3.9.2.2.6.3 1.1.3h2.2c1.2-.2 1.9-.9 1.9-2.3 0-1.1-.3-2.1-1-2.7-.7-.7-1.6-1-2.7-1-.7 0-1.1.1-1.3.3-.4.1-.5.5-.5 1.2zm0 7.6v2.3l.1 1c.1 1.1.9 1.6 2.5 1.6 1.5 0 2.6-.4 3.2-1.2.5-.7.7-1.4.7-2.4 0-1.8-.8-2.9-2.3-3.3-.9-.2-1.9-.4-3-.4-.5 0-.9.1-1 .4-.1.4-.2 1-.2 2zM117.8 69.8v10.5c0 .8.1 1.3.3 1.6.2.3.6.5 1.2.6.2 0 .3.1.3.1v.2c0 .2-.1.3-.2.3h-.4c-.6-.1-1.3-.1-2.1-.1-.9 0-1.6 0-2 .1h-.3c-.2 0-.2-.1-.2-.3 0-.1.1-.2.3-.3.5-.2.8-.7.8-1.5V70.8c0-1-.1-1.7-.2-2-.2-.4-.4-.5-.9-.5-.2 0-.3-.1-.3-.3 0-.1 0-.2.1-.2s.3-.1.7-.2c.9-.2 1.7-.5 2.2-.8l.4-.2c.1 0 .1-.1.2-.1s.2.1.2.2v.6c0 .9-.1 1.8-.1 2.5zM124 73.8v6.5c0 .8.1 1.3.3 1.6s.6.5 1.2.5c.2 0 .4.1.4.3 0 .2-.3.3-.9.3h-.5l-.8-.1c-.4 0-.7-.1-.9-.1-.4 0-.9.1-1.6.2h-.4c-.2 0-.2-.1-.2-.2s0-.2.1-.2l.4-.2c.2-.1.3-.3.4-.6.1-.3.2-.6.2-1v-4.4c0-.6-.1-1-.2-1.2-.1-.2-.3-.3-.6-.3h-.2c-.1 0-.2 0-.3-.1v-.2c0-.2.2-.3.7-.4 1.1-.2 2-.6 2.6-1.1.1-.1.1-.1.2-.1s.2.1.2.2v.1c-.1.1-.1.3-.1.5zm-1.2-6.2c.2 0 .4.3.8.8l.5.6c.1.1.2.3.2.4 0 .2-.2.5-.6 1-.4.5-.7.8-.8.8-.1 0-.2 0-.3-.1l-.5-.7-.5-.6c-.1-.2-.2-.3-.2-.4 0-.2.2-.5.6-1 .5-.5.7-.8.8-.8zM130.1 73.3c.5 0 1 .1 1.6.3.3.1.5.2.5.4v.5l.1.7v.5c0 .1-.1.2-.2.2s-.3-.3-.6-.8c-.5-1-1.2-1.5-1.9-1.5-.4 0-.7.1-1 .4-.3.3-.4.6-.4.9 0 .6.4 1.1 1.3 1.5l.7.3c.6.3 1.1.5 1.3.7.2.2.5.4.7.7.4.5.5 1.1.5 1.8 0 .9-.3 1.7-.9 2.3s-1.3.9-2.1.9c-.4 0-1-.1-1.6-.2l-.7-.2-.5-.1c-.2 0-.2-.1-.2-.3V82v-2.2-.3s.1-.1.3-.1c.1 0 .2.1.2.3.1.5.3 1.1.7 1.7.5.8 1.1 1.2 1.9 1.2.4 0 .8-.1 1.1-.4.3-.3.4-.6.4-1.1 0-.5-.1-.9-.4-1.1s-.8-.6-1.6-.9c-.9-.4-1.6-.8-1.9-1.2-.4-.4-.5-1-.5-1.7 0-.9.3-1.6.9-2.1.4-.5 1.2-.8 2.3-.8zM137.5 73.3c.5 0 1 .1 1.6.3.3.1.5.2.5.4v.5l.1.7v.5c0 .1-.1.2-.2.2s-.3-.3-.6-.8c-.5-1-1.2-1.5-1.9-1.5-.4 0-.7.1-1 .4-.3.3-.4.6-.4.9 0 .6.4 1.1 1.3 1.5l.7.3c.6.3 1.1.5 1.3.7.2.2.5.4.7.7.4.5.5 1.1.5 1.8 0 .9-.3 1.7-.9 2.3s-1.3.9-2.1.9c-.4 0-1-.1-1.6-.2l-.7-.2-.5-.1c-.2 0-.2-.1-.2-.3V82v-2.2-.3s.1-.1.3-.1c.1 0 .2.1.2.3.1.5.3 1.1.7 1.7.5.8 1.1 1.2 1.9 1.2.4 0 .8-.1 1.1-.4.3-.3.4-.6.4-1.1 0-.5-.1-.9-.4-1.1s-.8-.6-1.6-.9c-.9-.4-1.6-.8-1.9-1.2-.4-.4-.5-1-.5-1.7 0-.9.3-1.6.9-2.1.4-.5 1.3-.8 2.3-.8zM152.2 77.5c.1-.3.1-.6.1-.9 0-.8-.2-1.4-.5-1.9s-.8-.7-1.3-.7c-.7 0-1 .3-1 .9v.5c0 .5-.6.8-1.7.8-.3 0-.4-.1-.4-.4 0-.1 0-.1.1-.3 0-.1 0-.2.1-.3.1-.5.3-.9.7-1.1.8-.6 1.7-.9 2.8-.9 1.3 0 2.2.3 2.8.9.5.5.7 1.3.7 2.4 0 .6 0 1.3-.1 2.2 0 1-.1 1.7-.1 2 0 .8.3 1.2.9 1.2.2 0 .4 0 .5-.1.1-.1.2-.1.3-.1.1 0 .2.1.2.2 0 .2-.1.4-.4.5l-.4.2-.4.2c-.3.1-.5.2-.9.2-.6 0-1.2-.4-1.6-1.3-1.3.9-2.5 1.4-3.4 1.4-.6 0-1.1-.2-1.4-.6-.3-.4-.5-.9-.5-1.6 0-1.2.5-2.1 1.5-2.6.4-.1 1.6-.4 3.4-.8zm-.2.7c-.6 0-1.2.2-1.8.7-.6.5-.8 1.1-.8 1.7 0 1 .4 1.5 1.2 1.5.5 0 .9-.1 1.2-.4.2-.1.3-.3.4-.6.1-.3.1-.8.1-1.5v-1.1l-.1-.3h-.2zM166.6 78.2v2.3c0 .5 0 .8.1 1s.2.3.3.5c.3.2.6.4 1 .4.2 0 .3.1.3.3 0 .2-.3.3-.8.3h-.5l-.7-.1c-.3 0-.6-.1-.8-.1-.7 0-1.2 0-1.7.1h-.4c-.2 0-.2-.1-.2-.3 0-.1.1-.2.2-.3.3-.1.5-.3.6-.5.1-.2.2-.7.2-1.2V78c0-1-.2-1.9-.6-2.5-.4-.6-.9-.9-1.6-.9-.6 0-1.1.2-1.5.5-.4.3-.6.8-.6 1.4v3.8c0 .7.1 1.2.4 1.5.2.3.7.5 1.3.6.2 0 .3.1.3.3 0 .2-.1.3-.4.3-.2 0-.5 0-.9-.1-.8-.1-1.4-.2-1.7-.2-.4 0-.9 0-1.5.1-.3 0-.4.1-.5.1-.2 0-.3-.1-.3-.2s.1-.2.2-.2c.4-.1.6-.3.7-.5.1-.2.2-.5.2-.9V76.3c0-.5-.1-.9-.2-1.1-.1-.2-.3-.3-.6-.3h-.5c-.1 0-.1 0-.2-.1 0 0-.1-.1-.1-.2s.1-.2.2-.3c.1-.1.4-.2 1-.3.9-.2 1.7-.6 2.3-1 .1 0 .1-.1.1-.1.1 0 .1.1.1.2V74.4l.1.4c0 .1.1.1.1.1.1 0 .2-.1.3-.3.7-.9 1.5-1.3 2.6-1.3 1.2 0 2 .4 2.5 1.1.9.8 1.2 2.1 1.2 3.8zM178.4 70.5V80c0 .7.1 1.3.3 1.5s.5.4 1 .4c.2 0 .3.1.3.3 0 .2-.1.4-.3.4l-.6.1-1 .1c-.4.1-.9.2-1.5.4-.1.1-.2.1-.3.1-.1 0-.1-.1-.1-.2v-.9c0-.1 0-.2-.1-.3h-.1s-.1 0-.2.1c-.4.4-.8.7-1.4 1s-1.1.4-1.6.4c-1.1 0-2-.4-2.7-1.2-.7-.8-1-1.8-1-3.1 0-1.6.4-3 1.3-4.1.9-1.1 2-1.7 3.3-1.7.7 0 1.4.1 2.1.4h.2c.1 0 .2-.1.2-.4v-2.7c0-.9-.1-1.6-.2-1.9-.2-.3-.5-.5-1-.5-.2 0-.4-.1-.4-.3 0-.2.1-.3.2-.3l.6-.1c1-.2 1.8-.5 2.5-1 .1-.1.2-.2.3-.2.1 0 .2.1.2.4V70.5zm-2.2 9.9v-4.2c0-.6-.3-1.1-.9-1.6-.6-.5-1.2-.7-2-.7-.7 0-1.2.3-1.6.9s-.6 1.4-.6 2.4c0 1.3.3 2.3.9 3.2.6.9 1.4 1.3 2.3 1.3.3 0 .7-.1 1.1-.2.4-.2.6-.3.7-.5.1-.1.1-.3.1-.6zM203.1 67.2h.7c.8.1 1.6.1 2.2.1.7 0 1.3-.1 1.8-.2h.1c.2 0 .2.1.2.3 0 .2-.1.3-.3.4-.4.2-.8.4-1 .7-.3.3-.5.8-.7 1.4l-.6 1.7-1 2.6c-.8 2-1.2 3.2-1.4 3.6-.7 1.8-1.1 2.9-1.3 3.3-.4 1-.7 1.5-.7 1.7-.1.3-.2.4-.4.4s-.4-.2-.5-.5c0-.1-.2-.6-.5-1.3-1.1-2.9-1.9-5-2.4-6.5-.1-.3-.2-.5-.3-.5-.1 0-.3.3-.5.9-.2.6-.7 1.7-1.4 3.3-.7 1.6-1.2 2.7-1.5 3.3-.1.3-.2.5-.3.6-.2.5-.4.7-.7.7-.2 0-.4-.3-.6-.8-.1-.2-.2-.5-.3-.9-1-2.4-1.9-4.9-2.8-7.7-.6-1.8-.9-2.8-1-2.9l-.6-1.6c-.4-1-.8-1.6-1.4-1.6-.2 0-.3-.1-.3-.3 0-.2.1-.3.3-.3h.8l1.1.1h1.1c.5 0 1.1 0 1.8-.1h.2c.2 0 .4.1.4.3 0 .2-.1.3-.4.3-.6 0-1 .3-1 1 0 .4.3 1.5 1 3.4l1.1 3.1.7 2 .4 1.1c.2.5.3.8.5.8s.4-.4.7-1.1c0-.1.3-.7.8-1.8.2-.4.5-1 .8-1.9.2-.5.4-.9.5-1.2.1-.1.1-.2.1-.3 0-.1 0-.2-.1-.3-.1-.3-.3-.8-.5-1.5-.4-1.1-.7-2-1-2.5-.3-.5-.7-.8-1.2-.9-.2 0-.3-.1-.3-.3 0-.2.1-.3.4-.3h.5c1 .1 1.6.1 1.8.1h2.2c.3 0 .5-.1.7-.1.2 0 .3.1.3.4 0 .1-.1.2-.2.3l-.3.1c-.4.2-.7.5-.7 1s.4 1.8 1.1 4l1.1 3.3.5 1.3c.1.4.2.6.3.8.2.6.3.8.5.8s.4-.3.6-.9c0-.1.3-.7.7-1.7.2-.4.5-1.3.9-2.5.2-.6.5-1.4.8-2.3.4-1 .5-1.7.5-2.1 0-.5-.1-.9-.4-1.2-.3-.3-.7-.5-1.5-.6-.2 0-.3-.1-.3-.3-.1-.1 0-.2.2-.2zM212.1 73.8v6.5c0 .8.1 1.3.3 1.6s.6.5 1.2.5c.2 0 .4.1.4.3 0 .2-.3.3-.9.3h-.5l-.8-.1c-.4 0-.7-.1-.9-.1-.4 0-.9.1-1.6.2h-.4c-.2 0-.2-.1-.2-.2s0-.2.1-.2l.4-.2c.2-.1.3-.3.4-.6.1-.3.2-.6.2-1v-4.4c0-.6-.1-1-.2-1.2-.1-.2-.3-.3-.6-.3h-.2c-.1 0-.2 0-.3-.1v-.2c0-.2.2-.3.7-.4 1.1-.2 2-.6 2.6-1.1.1-.1.1-.1.2-.1s.2.1.2.2v.1c-.1.1-.1.3-.1.5zm-1.1-6.2c.2 0 .4.3.8.8l.5.6c.1.1.2.3.2.4 0 .2-.2.5-.6 1-.4.5-.7.8-.8.8-.1 0-.2 0-.3-.1l-.5-.7-.5-.6c-.1-.2-.2-.3-.2-.4 0-.2.2-.5.6-1 .4-.5.6-.8.8-.8zM218.2 73.3c.5 0 1 .1 1.6.3.3.1.5.2.5.4v.5l.1.7v.5c0 .1-.1.2-.2.2s-.3-.3-.6-.8c-.5-1-1.2-1.5-1.9-1.5-.4 0-.7.1-1 .4-.3.3-.4.6-.4.9 0 .6.4 1.1 1.3 1.5l.7.3c.6.3 1.1.5 1.3.7.2.2.5.4.7.7.4.5.5 1.1.5 1.8 0 .9-.3 1.7-.9 2.3s-1.3.9-2.1.9c-.4 0-1-.1-1.6-.2l-.7-.2-.5-.1c-.2 0-.2-.1-.2-.3V82v-2.2-.3s.1-.1.3-.1c.1 0 .2.1.2.3.1.5.3 1.1.7 1.7.5.8 1.1 1.2 1.9 1.2.4 0 .8-.1 1.1-.4.3-.3.4-.6.4-1.1 0-.5-.1-.9-.4-1.1s-.8-.6-1.6-.9c-.9-.4-1.6-.8-1.9-1.2-.4-.4-.5-1-.5-1.7 0-.9.3-1.6.9-2.1.4-.5 1.2-.8 2.3-.8zM231.4 70.5V80c0 .7.1 1.3.3 1.5s.5.4 1 .4c.2 0 .3.1.3.3 0 .2-.1.4-.3.4l-.6.1-1 .1c-.4.1-.9.2-1.5.4-.1.1-.2.1-.3.1-.1 0-.1-.1-.1-.2v-.9c0-.1 0-.2-.1-.3h-.1s-.1 0-.2.1c-.4.4-.8.7-1.4 1s-1.1.4-1.6.4c-1.1 0-2-.4-2.7-1.2-.7-.8-1-1.8-1-3.1 0-1.6.4-3 1.3-4.1.9-1.1 2-1.7 3.3-1.7.7 0 1.4.1 2.1.4h.2c.1 0 .2-.1.2-.4v-2.7c0-.9-.1-1.6-.2-1.9-.2-.3-.5-.5-1-.5-.2 0-.4-.1-.4-.3 0-.2.1-.3.2-.3l.6-.1c1-.2 1.8-.5 2.5-1 .1-.1.2-.2.3-.2.1 0 .2.1.2.4V70.5zm-2.2 9.9v-4.2c0-.6-.3-1.1-.9-1.6-.6-.5-1.2-.7-2-.7-.7 0-1.2.3-1.6.9s-.6 1.4-.6 2.4c0 1.3.3 2.3.9 3.2.6.9 1.4 1.3 2.3 1.3.3 0 .7-.1 1.1-.2.4-.2.6-.3.7-.5.1-.1.1-.3.1-.6zM239.1 73.3c1.4 0 2.5.5 3.4 1.4s1.3 2.1 1.3 3.5c0 1.5-.5 2.7-1.4 3.6-1 1-2.2 1.5-3.6 1.5s-2.5-.5-3.4-1.4c-.9-.9-1.4-2-1.4-3.4s.5-2.7 1.5-3.7c1-.9 2.2-1.5 3.6-1.5zm-.6.7c-.7 0-1.3.3-1.7.9s-.6 1.5-.6 2.5c0 1.4.3 2.7 1 3.7.6 1 1.4 1.5 2.3 1.5.7 0 1.2-.3 1.7-.9s.6-1.3.6-2.3c0-1.5-.3-2.9-1-3.9-.6-1-1.4-1.5-2.3-1.5zM261 77.6v3.2c0 .6.1 1 .3 1.2.2.2.5.4 1 .4.3 0 .4.1.4.3 0 .2-.1.3-.3.3-.3 0-.8-.1-1.5-.2-.4-.1-.7-.1-.9-.1-.3 0-.8.1-1.4.2-.2 0-.4.1-.4.1-.1 0-.2-.1-.2-.2s.1-.2.2-.3c.3-.2.5-.3.6-.5.1-.1.1-.4.1-.7v-3.6c0-1-.2-1.8-.5-2.3-.3-.5-.8-.7-1.5-.7-.5 0-1 .2-1.3.5-.3.3-.5.7-.5 1.2v4.1c0 .7.1 1.3.3 1.5.2.3.6.5 1.2.5.3 0 .4.1.4.3 0 .2-.1.3-.4.3-.3 0-.8-.1-1.5-.2-.5-.1-.8-.1-1.1-.1-.2 0-.6 0-1.2.1-.2 0-.3 0-.5.1-.2 0-.3-.1-.3-.3 0-.1.1-.2.2-.3.3-.2.6-.3.7-.5.1-.2.2-.5.2-.9v-3.5c0-1-.2-1.8-.5-2.3-.3-.5-.8-.7-1.5-.7-.6 0-1 .2-1.4.6-.4.4-.6.9-.6 1.4v4.1c0 .5.1.9.3 1.1.2.2.6.4 1.2.6.2.1.3.2.3.3 0 .2-.1.3-.4.3h-.6l-1-.1c-.4 0-.8-.1-1.1-.1-.5 0-.9 0-1.3.1-.2 0-.3.1-.4.1-.2 0-.3-.1-.3-.3 0-.1.1-.2.2-.2.3-.1.5-.3.6-.5.1-.2.2-.5.2-.9V76.3c0-.7-.1-1.1-.2-1.3-.1-.2-.5-.3-.9-.3-.2 0-.3-.1-.3-.2 0-.2.2-.3.5-.4l.9-.3.6-.2c.4-.1.8-.3 1.2-.7.1 0 .1-.1.2-.1s.2.1.2.3V74.5c0 .3.1.4.2.5 0 0 .1 0 .2-.1l.4-.5c.6-.7 1.4-1.1 2.3-1.1.5 0 1 .2 1.5.5s.9.7 1 1.1c.1.2.1.4.2.4s.1-.1.2-.2c.4-.5.8-1 1.4-1.3.6-.3 1.1-.5 1.7-.5 1.8-.1 2.9 1.4 2.9 4.3zM271.1 70.7c0-1.5-.6-2.4-1.8-2.5l-.5-.1c-.2 0-.2-.1-.2-.3 0-.2.1-.3.3-.3H271.3c.5 0 1.5-.1 2.9-.2.9-.1 1.6-.1 2.2-.1 1.5 0 2.8.3 3.7 1s1.4 1.6 1.4 2.8c0 1.3-.6 2.3-1.7 2.8-.3.1-.4.2-.4.3 0 .1.1.2.4.3.9.2 1.6.6 2.1 1.3.5.7.8 1.5.8 2.5 0 1.5-.5 2.7-1.4 3.6-1 .9-2.3 1.3-3.9 1.3L275 83h-1.7c-1.1 0-2 0-2.8.1h-.7c-.2 0-.3-.1-.3-.3 0-.2.1-.3.3-.3.9-.2 1.3-.9 1.3-2.4v-9.4zm2.5-1V73c0 .5.1.8.3.9.2.2.6.3 1.1.3h2.2c1.2-.2 1.9-.9 1.9-2.3 0-1.1-.3-2.1-1-2.7-.7-.7-1.6-1-2.7-1-.7 0-1.1.1-1.3.3-.4.1-.5.5-.5 1.2zm0 7.6v2.3l.1 1c.1 1.1.9 1.6 2.5 1.6 1.5 0 2.6-.4 3.2-1.2.5-.7.7-1.4.7-2.4 0-1.8-.8-2.9-2.3-3.3-.9-.2-1.9-.4-3-.4-.5 0-.9.1-1 .4-.1.4-.2 1-.2 2zM293.8 73.5v7.1c0 .7.1 1.2.2 1.4.1.2.4.3.9.3h.5c.1 0 .2.1.2.3 0 .3-.2.4-.7.4h-1.2c-.4 0-1 .1-1.5.3h-.2c-.2 0-.2-.1-.2-.4v-.4-.3c0-.2 0-.3-.1-.4 0 0-.1 0-.2.1l-.4.4c-.7.7-1.5 1.1-2.4 1.1-1.1 0-1.9-.3-2.4-.9s-.8-1.5-.8-2.8c0-1.6 0-3 .1-4.2V75c0-.5-.2-.8-.6-.8h-.4c-.2 0-.3-.1-.3-.3 0-.1.1-.2.3-.3.2 0 .6-.1 1.2-.1s1.1-.1 1.5-.2c.2-.1.3-.1.5-.1.1 0 .2.1.2.3v.6c-.1.8-.1 2.2-.1 4.2 0 1.6.1 2.6.4 3.1.3.5.8.8 1.6.8.6 0 1.1-.2 1.4-.6.3-.4.5-1 .5-1.7v-4.2c0-.6-.1-1-.2-1.2-.1-.1-.4-.3-.9-.3-.2 0-.3-.1-.3-.3 0-.2.2-.4.7-.4 1.3 0 2.1-.1 2.6-.3.1 0 .2-.1.2-.1.1 0 .2.1.2.2l-.3.2zM305.7 70.5V80c0 .7.1 1.3.3 1.5s.5.4 1 .4c.2 0 .3.1.3.3 0 .2-.1.4-.3.4l-.6.1-1 .1c-.4.1-.9.2-1.5.4-.1.1-.2.1-.3.1-.1 0-.1-.1-.1-.2v-.9c0-.1 0-.2-.1-.3h-.1s-.1 0-.2.1c-.4.4-.8.7-1.4 1s-1.1.4-1.6.4c-1.1 0-2-.4-2.7-1.2-.7-.8-1-1.8-1-3.1 0-1.6.4-3 1.3-4.1.9-1.1 2-1.7 3.3-1.7.7 0 1.4.1 2.1.4h.2c.1 0 .2-.1.2-.4v-2.7c0-.9-.1-1.6-.2-1.9-.2-.3-.5-.5-1-.5-.2 0-.4-.1-.4-.3 0-.2.1-.3.2-.3l.6-.1c1-.2 1.8-.5 2.5-1 .1-.1.2-.2.3-.2.1 0 .2.1.2.4V70.5zm-2.2 9.9v-4.2c0-.6-.3-1.1-.9-1.6-.6-.5-1.2-.7-2-.7-.7 0-1.2.3-1.6.9s-.6 1.4-.6 2.4c0 1.3.3 2.3.9 3.2.6.9 1.4 1.3 2.3 1.3.3 0 .7-.1 1.1-.2.4-.2.6-.3.7-.5 0-.1.1-.3.1-.6zM317.5 70.5V80c0 .7.1 1.3.3 1.5s.5.4 1 .4c.2 0 .3.1.3.3 0 .2-.1.4-.3.4l-.6.1-1 .1c-.4.1-.9.2-1.5.4-.1.1-.2.1-.3.1-.1 0-.1-.1-.1-.2v-.9c0-.1 0-.2-.1-.3h-.1s-.1 0-.2.1c-.4.4-.8.7-1.4 1s-1.1.4-1.6.4c-1.1 0-2-.4-2.7-1.2-.7-.8-1-1.8-1-3.1 0-1.6.4-3 1.3-4.1.9-1.1 2-1.7 3.3-1.7.7 0 1.4.1 2.1.4h.2c.1 0 .2-.1.2-.4v-2.7c0-.9-.1-1.6-.2-1.9-.2-.3-.5-.5-1-.5-.2 0-.4-.1-.4-.3 0-.2.1-.3.2-.3l.6-.1c1-.2 1.8-.5 2.5-1 .1-.1.2-.2.3-.2.1 0 .2.1.2.4V70.5zm-2.2 9.9v-4.2c0-.6-.3-1.1-.9-1.6-.6-.5-1.2-.7-2-.7-.7 0-1.2.3-1.6.9s-.6 1.4-.6 2.4c0 1.3.3 2.3.9 3.2.6.9 1.4 1.3 2.3 1.3.3 0 .7-.1 1.1-.2.4-.2.6-.3.7-.5.1-.1.1-.3.1-.6zM323.5 75.9v4.6c0 .6.1 1 .2 1.3.2.3.4.4.9.6l.5.1c.2 0 .2.1.2.3 0 .2-.1.3-.3.3-.1 0-.2 0-.4-.1-.5-.1-1.1-.2-1.6-.2-.3 0-.9 0-1.7.1h-.7c-.3 0-.4-.1-.4-.3 0-.1.1-.2.2-.2.6-.2.9-.8.9-1.7V69.6l-.1-.5c-.1-.3-.2-.5-.3-.6-.1-.1-.4-.2-.9-.3-.2 0-.2-.1-.2-.2s.1-.2.2-.3c.1-.1.4-.1.8-.2.7-.2 1.4-.4 2-.8.3-.2.6-.3.7-.3.1 0 .2.1.2.2v.6c-.1.7-.1 1.6-.1 2.7v5c0 .1 0 .2.1.2l.1-.1c.9-1.1 1.9-1.6 2.9-1.6 1.1 0 2 .5 2.6 1.4.4.7.7 1.8.7 3.4v2.3c0 .6 0 1 .1 1.2.1.2.2.4.4.5.2.2.5.3.9.3.2 0 .4.1.4.3 0 .2-.1.2-.3.2h-.9c-.5-.1-1-.1-1.3-.1-.8 0-1.5 0-2 .1h-.2c-.2 0-.3-.1-.3-.3 0-.1.1-.2.2-.2.3-.1.6-.3.7-.6.1-.2.2-.7.2-1.3v-2.4c0-1.3-.2-2.1-.5-2.7-.4-.7-1-1-1.8-1-1.1.2-1.7.6-2.1 1.4zM336 73.8v6.5c0 .8.1 1.3.3 1.6s.6.5 1.2.5c.2 0 .4.1.4.3 0 .2-.3.3-.9.3h-.5l-.8-.1c-.4 0-.7-.1-.9-.1-.4 0-.9.1-1.6.2h-.4c-.2 0-.2-.1-.2-.2s0-.2.1-.2l.4-.2c.2-.1.3-.3.4-.6.1-.3.2-.6.2-1v-4.4c0-.6-.1-1-.2-1.2-.1-.2-.3-.3-.6-.3h-.2c-.1 0-.2 0-.3-.1v-.2c0-.2.2-.3.7-.4 1.1-.2 2-.6 2.6-1.1.1-.1.1-.1.2-.1s.2.1.2.2v.1c-.1.1-.1.3-.1.5zm-1.2-6.2c.2 0 .4.3.8.8l.5.6c.1.1.2.3.2.4 0 .2-.2.5-.6 1-.4.5-.7.8-.8.8-.1 0-.2 0-.3-.1l-.5-.7-.5-.6c-.1-.2-.2-.3-.2-.4 0-.2.2-.5.6-1 .4-.5.7-.8.8-.8zM342 73.3c.5 0 1 .1 1.6.3.3.1.5.2.5.4v.5l.1.7v.5c0 .1-.1.2-.2.2s-.3-.3-.6-.8c-.5-1-1.2-1.5-1.9-1.5-.4 0-.7.1-1 .4-.3.3-.4.6-.4.9 0 .6.4 1.1 1.3 1.5l.7.3c.6.3 1.1.5 1.3.7.2.2.5.4.7.7.4.5.5 1.1.5 1.8 0 .9-.3 1.7-.9 2.3s-1.3.9-2.1.9c-.4 0-1-.1-1.6-.2l-.7-.2-.5-.1c-.2 0-.2-.1-.2-.3V82v-2.2-.3s.1-.1.3-.1c.1 0 .2.1.2.3.1.5.3 1.1.7 1.7.5.8 1.1 1.2 1.9 1.2.4 0 .8-.1 1.1-.4.3-.3.4-.6.4-1.1 0-.5-.1-.9-.4-1.1s-.8-.6-1.6-.9c-.9-.4-1.6-.8-1.9-1.2-.4-.4-.5-1-.5-1.7 0-.9.3-1.6.9-2.1.5-.5 1.3-.8 2.3-.8zM361.8 77.6v3.2c0 .6.1 1 .3 1.2.2.2.5.4 1 .4.3 0 .4.1.4.3 0 .2-.1.3-.3.3-.3 0-.8-.1-1.5-.2-.4-.1-.7-.1-.9-.1-.3 0-.8.1-1.4.2-.2 0-.4.1-.4.1-.1 0-.2-.1-.2-.2s.1-.2.2-.3c.3-.2.5-.3.6-.5.1-.1.1-.4.1-.7v-3.6c0-1-.2-1.8-.5-2.3-.3-.5-.8-.7-1.5-.7-.5 0-1 .2-1.3.5-.3.3-.5.7-.5 1.2v4.1c0 .7.1 1.3.3 1.5.2.3.6.5 1.2.5.3 0 .4.1.4.3 0 .2-.1.3-.4.3-.3 0-.8-.1-1.5-.2-.5-.1-.8-.1-1.1-.1-.2 0-.6 0-1.2.1-.2 0-.3 0-.5.1-.2 0-.3-.1-.3-.3 0-.1.1-.2.2-.3.3-.2.6-.3.7-.5.1-.2.2-.5.2-.9v-3.5c0-1-.2-1.8-.5-2.3-.3-.5-.8-.7-1.5-.7-.6 0-1 .2-1.4.6-.4.4-.6.9-.6 1.4v4.1c0 .5.1.9.3 1.1.2.2.6.4 1.2.6.2.1.3.2.3.3 0 .2-.1.3-.4.3h-.6l-1-.1c-.4 0-.8-.1-1.1-.1-.5 0-.9 0-1.3.1-.2 0-.3.1-.4.1-.2 0-.3-.1-.3-.3 0-.1.1-.2.2-.2.3-.1.5-.3.6-.5.1-.2.2-.5.2-.9V76.3c0-.7-.1-1.1-.2-1.3-.1-.2-.5-.3-.9-.3-.2 0-.3-.1-.3-.2 0-.2.2-.3.5-.4l.9-.3.6-.2c.4-.1.8-.3 1.2-.7.1 0 .1-.1.2-.1s.2.1.2.3V74.5c0 .3.1.4.2.5 0 0 .1 0 .2-.1l.4-.5c.6-.7 1.4-1.1 2.3-1.1.5 0 1 .2 1.5.5s.9.7 1 1.1c.1.2.1.4.2.4s.1-.1.2-.2c.4-.5.8-1 1.4-1.3.6-.3 1.1-.5 1.7-.5 1.8-.1 2.9 1.4 2.9 4.3zM374.4 73.1c0 .4.1.7.2.9.1.1.3.2.6.2h1.6c.5 0 .9-.1 1.2-.4.3-.2.5-.7.8-1.4.1-.2.1-.3.2-.3.2 0 .3.1.3.3v.7c0 .4 0 1 .1 1.6l.2 2.2v.5c0 .2-.1.2-.3.3-.1 0-.2-.1-.3-.3-.1-.8-.4-1.3-.7-1.6s-.9-.4-1.8-.4c-1.1 0-1.7.1-1.9.2-.2.1-.2.7-.2 1.6v2.2c0 1.1.2 2 .6 2.5.3.4.8.6 1.6.7.2 0 .3.1.3.3 0 .2-.1.3-.2.3s-.4 0-.6-.1h-2.8c-.5 0-1 0-1.4.1-.5.1-.9.1-1.1.1-.2 0-.4-.1-.4-.3 0-.1.1-.3.3-.3.4-.2.7-.4.9-.8.2-.4.2-1 .2-1.9v-9.4c0-1-.2-1.6-.5-1.9-.4-.3-.9-.5-1.6-.6-.2 0-.3-.1-.3-.3 0-.2.1-.3.4-.3h.6c.4 0 .9.1 1.4.1h4.8c1 0 2 0 3-.1h.8c.2 0 .3.2.3.6 0 .5.1.8.1.8l.1.9v.4c0 .6-.1.9-.4.9-.2 0-.2-.1-.2-.3v-.4c0-.2 0-.3-.1-.4-.3-1-1.3-1.5-2.9-1.5H375.5c-.4 0-.7.1-.9.2-.2.2-.2.5-.2.9v3.5zM387 73.3c1.4 0 2.5.5 3.4 1.4s1.3 2.1 1.3 3.5c0 1.5-.5 2.7-1.4 3.6-1 1-2.2 1.5-3.6 1.5s-2.5-.5-3.4-1.4c-.9-.9-1.4-2-1.4-3.4s.5-2.7 1.5-3.7c1-.9 2.2-1.5 3.6-1.5zm-.6.7c-.7 0-1.3.3-1.7.9s-.6 1.5-.6 2.5c0 1.4.3 2.7 1 3.7.6 1 1.4 1.5 2.3 1.5.7 0 1.2-.3 1.7-.9s.6-1.3.6-2.3c0-1.5-.3-2.9-1-3.9-.6-1-1.4-1.5-2.3-1.5zM402.8 73.5v7.1c0 .7.1 1.2.2 1.4.1.2.4.3.9.3h.5c.1 0 .2.1.2.3 0 .3-.2.4-.7.4h-1.2c-.4 0-1 .1-1.5.3h-.2c-.2 0-.2-.1-.2-.4v-.4-.3c0-.2 0-.3-.1-.4 0 0-.1 0-.2.1l-.4.4c-.7.7-1.5 1.1-2.4 1.1-1.1 0-1.9-.3-2.4-.9s-.8-1.5-.8-2.8c0-1.6 0-3 .1-4.2V75c0-.5-.2-.8-.6-.8h-.4c-.2 0-.3-.1-.3-.3 0-.1.1-.2.3-.3.2 0 .6-.1 1.2-.1s1.1-.1 1.5-.2c.2-.1.3-.1.5-.1.1 0 .2.1.2.3v.6c-.1.8-.1 2.2-.1 4.2 0 1.6.1 2.6.4 3.1.3.5.8.8 1.6.8.6 0 1.1-.2 1.4-.6.3-.4.5-1 .5-1.7v-4.2c0-.6-.1-1-.2-1.2-.1-.1-.4-.3-.9-.3-.2 0-.3-.1-.3-.3 0-.2.2-.4.7-.4 1.3 0 2.1-.1 2.6-.3.1 0 .2-.1.2-.1.1 0 .2.1.2.2l-.3.2zM415.4 78.2v2.3c0 .5 0 .8.1 1s.2.3.3.5c.3.2.6.4 1 .4.2 0 .3.1.3.3 0 .2-.3.3-.8.3h-.5l-.7-.1c-.3 0-.6-.1-.8-.1-.7 0-1.2 0-1.7.1h-.4c-.2 0-.2-.1-.2-.3 0-.1.1-.2.2-.3.3-.1.5-.3.6-.5.1-.2.2-.7.2-1.2V78c0-1-.2-1.9-.6-2.5-.4-.6-.9-.9-1.6-.9-.6 0-1.1.2-1.5.5-.4.3-.6.8-.6 1.4v3.8c0 .7.1 1.2.4 1.5.2.3.7.5 1.3.6.2 0 .3.1.3.3 0 .2-.1.3-.4.3-.2 0-.5 0-.9-.1-.8-.1-1.4-.2-1.7-.2-.4 0-.9 0-1.5.1-.3 0-.4.1-.5.1-.2 0-.3-.1-.3-.2s.1-.2.2-.2c.4-.1.6-.3.7-.5.1-.2.2-.5.2-.9V76.3c0-.5-.1-.9-.2-1.1-.1-.2-.3-.3-.6-.3h-.5c-.1 0-.1 0-.2-.1 0 0-.1-.1-.1-.2s.1-.2.2-.3c.1-.1.4-.2 1-.3.9-.2 1.7-.6 2.3-1 .1 0 .1-.1.1-.1.1 0 .1.1.1.2V74.4l.1.4c0 .1.1.1.1.1.1 0 .2-.1.3-.3.7-.9 1.5-1.3 2.6-1.3 1.2 0 2 .4 2.5 1.1 1 .8 1.2 2.1 1.2 3.8zM427.3 70.5V80c0 .7.1 1.3.3 1.5s.5.4 1 .4c.2 0 .3.1.3.3 0 .2-.1.4-.3.4l-.6.1-1 .1c-.4.1-.9.2-1.5.4-.1.1-.2.1-.3.1-.1 0-.1-.1-.1-.2v-.9c0-.1 0-.2-.1-.3h-.1s-.1 0-.2.1c-.4.4-.8.7-1.4 1s-1.1.4-1.6.4c-1.1 0-2-.4-2.7-1.2-.7-.8-1-1.8-1-3.1 0-1.6.4-3 1.3-4.1.9-1.1 2-1.7 3.3-1.7.7 0 1.4.1 2.1.4h.2c.1 0 .2-.1.2-.4v-2.7c0-.9-.1-1.6-.2-1.9-.2-.3-.5-.5-1-.5-.2 0-.4-.1-.4-.3 0-.2.1-.3.2-.3l.6-.1c1-.2 1.8-.5 2.5-1 .1-.1.2-.2.3-.2.1 0 .2.1.2.4V70.5zm-2.2 9.9v-4.2c0-.6-.3-1.1-.9-1.6-.6-.5-1.2-.7-2-.7-.7 0-1.2.3-1.6.9s-.6 1.4-.6 2.4c0 1.3.3 2.3.9 3.2.6.9 1.4 1.3 2.3 1.3.3 0 .7-.1 1.1-.2.4-.2.6-.3.7-.5 0-.1.1-.3.1-.6zM435 77.5c.1-.3.1-.6.1-.9 0-.8-.2-1.4-.5-1.9s-.8-.7-1.3-.7c-.7 0-1 .3-1 .9v.5c0 .5-.6.8-1.7.8-.3 0-.4-.1-.4-.4 0-.1 0-.1.1-.3 0-.1 0-.2.1-.3.1-.5.3-.9.7-1.1.8-.6 1.7-.9 2.8-.9 1.3 0 2.2.3 2.8.9.5.5.7 1.3.7 2.4 0 .6 0 1.3-.1 2.2 0 1-.1 1.7-.1 2 0 .8.3 1.2.9 1.2.2 0 .4 0 .5-.1.1-.1.2-.1.3-.1.1 0 .2.1.2.2 0 .2-.1.4-.4.5l-.4.2-.4.2c-.3.1-.5.2-.9.2-.6 0-1.2-.4-1.6-1.3-1.3.9-2.5 1.4-3.4 1.4-.6 0-1.1-.2-1.4-.6-.3-.4-.5-.9-.5-1.6 0-1.2.5-2.1 1.5-2.6.4-.1 1.6-.4 3.4-.8zm-.2.7c-.6 0-1.2.2-1.8.7-.6.5-.8 1.1-.8 1.7 0 1 .4 1.5 1.2 1.5.5 0 .9-.1 1.2-.4.2-.1.3-.3.4-.6.1-.3.1-.8.1-1.5v-1.1l-.1-.3h-.2zM442.8 74.8v5.6c0 .7.1 1.1.3 1.4.2.3.5.4 1 .4.2 0 .4-.1.8-.2.3-.1.5-.2.7-.3.1-.1.1-.1.2-.1s.1.1.2.2v.1l-.1.2c-.8.8-1.7 1.2-2.8 1.2-.8 0-1.4-.2-1.8-.6s-.6-1-.6-1.8v-6.2h-.7c-.3 0-.5-.1-.5-.3 0-.1.1-.3.3-.4.3-.2.8-.6 1.3-1.3.6-.6 1-1.1 1.2-1.4.2-.4.4-.6.5-.5.1 0 .1.1.1.2v2.7h1.6c.3 0 .5 0 .6-.1l.3-.2c.1 0 .1-.1.2-.1s.2.1.2.2 0 .2-.1.3c0 .1-.1.3-.1.5-.1.4-.3.6-.6.6h-2.2zM450.1 73.8v6.5c0 .8.1 1.3.3 1.6s.6.5 1.2.5c.2 0 .4.1.4.3 0 .2-.3.3-.9.3h-.5l-.8-.1c-.4 0-.7-.1-.9-.1-.4 0-.9.1-1.6.2h-.4c-.2 0-.2-.1-.2-.2s0-.2.1-.2l.4-.2c.2-.1.3-.3.4-.6.1-.3.2-.6.2-1v-4.4c0-.6-.1-1-.2-1.2-.1-.2-.3-.3-.6-.3h-.2c-.1 0-.2 0-.3-.1v-.2c0-.2.2-.3.7-.4 1.1-.2 2-.6 2.6-1.1.1-.1.2-.1.2-.1.1 0 .2.1.2.2v.1c-.1.1-.1.3-.1.5zm-1.1-6.2c.2 0 .4.3.8.8l.5.6c.1.1.2.3.2.4 0 .2-.2.5-.6 1-.4.5-.7.8-.8.8-.1 0-.2 0-.3-.1l-.5-.7-.5-.6c-.1-.2-.2-.3-.2-.4 0-.2.2-.5.6-1 .4-.5.6-.8.8-.8zM457.8 73.3c1.4 0 2.5.5 3.4 1.4s1.3 2.1 1.3 3.5c0 1.5-.5 2.7-1.4 3.6-1 1-2.2 1.5-3.6 1.5s-2.5-.5-3.4-1.4c-.9-.9-1.4-2-1.4-3.4s.5-2.7 1.5-3.7c1-.9 2.2-1.5 3.6-1.5zm-.6.7c-.7 0-1.3.3-1.7.9s-.6 1.5-.6 2.5c0 1.4.3 2.7 1 3.7.6 1 1.4 1.5 2.3 1.5.7 0 1.2-.3 1.7-.9s.6-1.3.6-2.3c0-1.5-.3-2.9-1-3.9-.6-1-1.4-1.5-2.3-1.5zM473.9 78.2v2.3c0 .5 0 .8.1 1s.2.3.3.5c.3.2.6.4 1 .4.2 0 .3.1.3.3 0 .2-.3.3-.8.3h-.5l-.7-.1c-.3 0-.6-.1-.8-.1-.7 0-1.2 0-1.7.1h-.4c-.2 0-.2-.1-.2-.3 0-.1.1-.2.2-.3.3-.1.5-.3.6-.5.1-.2.2-.7.2-1.2V78c0-1-.2-1.9-.6-2.5-.4-.6-.9-.9-1.6-.9-.6 0-1.1.2-1.5.5-.4.3-.6.8-.6 1.4v3.8c0 .7.1 1.2.4 1.5.2.3.7.5 1.3.6.2 0 .3.1.3.3 0 .2-.1.3-.4.3-.2 0-.5 0-.9-.1-.8-.1-1.4-.2-1.7-.2-.4 0-.9 0-1.5.1-.3 0-.4.1-.5.1-.2 0-.3-.1-.3-.2s.1-.2.2-.2c.4-.1.6-.3.7-.5.1-.2.2-.5.2-.9V76.3c0-.5-.1-.9-.2-1.1-.1-.2-.3-.3-.6-.3h-.5c-.1 0-.1 0-.2-.1 0 0-.1-.1-.1-.2s.1-.2.2-.3c.1-.1.4-.2 1-.3.9-.2 1.7-.6 2.3-1 .1 0 .1-.1.1-.1.1 0 .1.1.1.2V74.4l.1.4c0 .1.1.1.1.1.1 0 .2-.1.3-.3.7-.9 1.5-1.3 2.6-1.3 1.2 0 2 .4 2.5 1.1 1 .8 1.2 2.1 1.2 3.8z"/></g><g><defs><path id="a" d="M62.8 57c-.5.7-1.3 2-2.1 2.8-1.8 2-2.4 2.7-2.8 3.2-.4.5-.3.9.1 1.4 2.3 3.5.6 7.4-.4 9-1.3 2.1-3 2.5-2.3 2.8.7.2 7.8-2.4 9.7-3.6 2.3-1.3 4.2-2.4 4.9-5 .7-2.4-.1-4.2-2.1-6.1-1.7-1.6-3.5-3.7-4.2-4.6-.1-.2-.3-.6-.5-.6 0 0-.1.5-.3.7"/></defs><clipPath id="b"><use xlink:href="#a" overflow="visible"/></clipPath><linearGradient id="c" gradientUnits="userSpaceOnUse" x1="6.303" y1="-70.247" x2="8.832" y2="-70.247" gradientTransform="matrix(-.1926 6.0663 6.0663 .1926 490.44 28.82)"><stop offset="0" stop-color="#fff79d"/><stop offset="1" stop-color="#008059"/></linearGradient><path clip-path="url(#b)" fill="url(#c)" d="M71.4 56.4L70.7 77 54 76.5l.6-20.7z"/><defs><path id="d" d="M61.5 75.6c-.1 0-.2 0-2.3.7-3.3 1.2-8.8 1.1-8.8 1.1-.7.1-.3.2-.3.4.1.2 1.6 1.2 3.5 1.5 1.3.2 1.8.2 2.4.2h1.9c3.2.2 3.8.6 5 1.1 1.8.7 3.1 1.6 3.3 1.8.4.4 1.1 1.1 1.2 1 .2-.1.1-.2-.1-.8-.2-.5-2-3.2-2-3.2-1.7-2.3-2.4-2.8-2.8-3.4-.3-.4-.6-.5-.9-.5.1 0 0 .1-.1.1"/></defs><clipPath id="e"><use xlink:href="#d" overflow="visible"/></clipPath><linearGradient id="f" gradientUnits="userSpaceOnUse" x1="-43.767" y1="-58.63" x2="-41.24" y2="-58.63" gradientTransform="scale(-5.0895 5.0895) rotate(-32.516 100.42 -74.13)"><stop offset="0" stop-color="#fff79d"/><stop offset="1" stop-color="#008059"/></linearGradient><path clip-path="url(#e)" fill="url(#f)" d="M62.6 91.7L46.2 81.2 55 67.4l16.4 10.5z"/><defs><path id="g" d="M72.4 54.7c-1.9.9-5.7 2.2-5.7 2.2-1.2.4-.6 1.1-.6 1.1s1.8 1.5 2.1 1.7c.4.3.7 0 .7 0s1.4-.8 2.5-1.7c1.1-.9 2.4-2.7 2.7-3.3.1-.3 0-.4-.3-.4-.3-.1-.7.1-1.4.4"/></defs><clipPath id="h"><use xlink:href="#g" overflow="visible"/></clipPath><linearGradient id="i" gradientUnits="userSpaceOnUse" x1="-.03" y1="-125.45" x2="2.495" y2="-125.45" gradientTransform="matrix(3.2442 0 0 -3.2442 66.045 -349.872)"><stop offset="0" stop-color="#fff79d"/><stop offset="1" stop-color="#008059"/></linearGradient><path clip-path="url(#h)" fill="url(#i)" d="M65.5 54.2h8.6V60h-8.6z"/><defs><path id="j" d="M59 58.3c-.4.1-1.2.4-2.6.5-1.6 0-3.4-.2-3.4-.2-.8 0-.5.5 0 .7.9.4 1.5 1 2.2 1.6 1 .9 1.1.9 1.3 1.2.2.3.5.3 1.1-.3.5-.6 2.6-3.1 2.7-3.3.2-.4 0-.5-.3-.5-.4.1-1 .3-1 .3"/></defs><clipPath id="k"><use xlink:href="#j" overflow="visible"/></clipPath><linearGradient id="l" gradientUnits="userSpaceOnUse" x1="-2.009" y1="-128.167" x2=".516" y2="-128.167" gradientTransform="matrix(3.1085 0 0 -3.1085 58.736 -338.168)"><stop offset="0" stop-color="#fff79d"/><stop offset="1" stop-color="#008059"/></linearGradient><path clip-path="url(#k)" fill="url(#l)" d="M52.2 58.1h8.2v4.4h-8.2z"/><defs><path id="m" d="M75.3 54.9s.5 1.6-3.2 4.2c-1.1.8-1.5.9-1.8 1.2-.5.6-.3 1.4.3 2.1.5.6 1.1 2.3 1 3.8-.1 1.7-.3 2.9-1.6 4.2-1.2 1.3-2.9 2.4-4.5 2.9-1 .3-.8.6.1.5.9-.1 3.9-.5 6.8-1.3 1-.3 4-1.3 6.8-4 1.6-1.6 2.9-4.1 2.2-6.3-.4-1.4-1.2-2.8-3-4.1-.9-.7-1.9-1.8-2.4-2.6-.3-.4-.2-.9-.5-.9-.2 0-.1.2-.2.3"/></defs><clipPath id="n"><use xlink:href="#m" overflow="visible"/></clipPath><linearGradient id="o" gradientUnits="userSpaceOnUse" x1="13.977" y1="-64.368" x2="16.505" y2="-64.368" gradientTransform="matrix(-.2869 4.4939 4.4939 .2869 367.25 9.618)"><stop offset="0" stop-color="#fff79d"/><stop offset="1" stop-color="#008059"/></linearGradient><path clip-path="url(#n)" fill="url(#o)" d="M83.3 54.7L82 75.1l-18.7-1.2 1.3-20.4z"/><defs><path id="p" d="M77.5 44.6c-1.4.9-3.5 1.9-5.4 4-.7.7-1.5 1.8-1.7 1.9-.1.2-.5.8.6 1 1 .2 3.6 1.1 4.9 1.9 1 .6 1.6 1.4 2 1.2.4-.1 1.9-1.1 2.5-3.4.3-1 .4-2.9-.3-4.7-.7-1.8-.3-3.7-.3-3.9 0-.2-.2-.2-.2-.2s-.9 1.5-2.1 2.2"/></defs><clipPath id="q"><use xlink:href="#p" overflow="visible"/></clipPath><linearGradient id="r" gradientUnits="userSpaceOnUse" x1="15.158" y1="-64.17" x2="17.685" y2="-64.17" gradientTransform="matrix(-.1294 4.2049 4.2049 .1294 347.398 -12.693)"><stop offset="0" stop-color="#fff79d"/><stop offset="1" stop-color="#008059"/></linearGradient><path clip-path="url(#q)" fill="url(#r)" d="M81.3 42.5l-.4 12.7-11.3-.4.4-12.7z"/><defs><path id="s" d="M86.6 47.1s-4.2 4-4.9 4.9c-1.3 1.6-2.5 3.4-2.6 3.5-.1.2-.5.8.1 1.3.6.4 1.3 1.1 2.2 2.4 1 1.5 1 2.1 1.2 2.4.1.3.4.5.9.1.9-.6 2.9-1.4 3.6-1.7.3-.1 1.1-.1.8-.7-.2-.3-.9-2.2-1.4-3.8-.4-1.1-1-4-.2-7 .2-.6.9-1.7.9-1.7s0-.2-.2-.2c.1.1-.1.2-.4.5"/></defs><clipPath id="t"><use xlink:href="#s" overflow="visible"/></clipPath><linearGradient id="u" gradientUnits="userSpaceOnUse" x1="9.134" y1="-66.468" x2="11.662" y2="-66.468" gradientTransform="matrix(-.1622 5.2724 5.2724 .1622 435.64 9.752)"><stop offset="0" stop-color="#fff79d"/><stop offset="1" stop-color="#008059"/></linearGradient><path clip-path="url(#t)" fill="url(#u)" d="M88.8 46.8l-.5 15.6-10.1-.3.5-15.7z"/><g><defs><path id="v" d="M87.1 61.7c-2.6.8-2.8 1-3 1.1-.8.4-.8.4-1.2 1.4-.4 1.1-.6 2-1 2.7-.6 1.1-1.6 2.5-2 2.9-.4.3-1.1.9-.2.9.8-.1 3.4-.2 5.6-1.8 1.6-1.1 3.7-2.8 6.3-3.9 1.8-.8 5.1-1 5.9-1.1.6-.1.4-.2 0-.5-.5-.3-3.1-1.8-5.1-2-.5-.1-1.4-.2-2.4-.2-.8.1-1.8.2-2.9.5"/></defs><clipPath id="w"><use xlink:href="#v" overflow="visible"/></clipPath><linearGradient id="x" gradientUnits="userSpaceOnUse" x1="-36.562" y1="-44.446" x2="-34.037" y2="-44.446" gradientTransform="scale(-4.213 4.213) rotate(-2.603 1295.284 -319.691)"><stop offset="0" stop-color="#fff79d"/><stop offset="1" stop-color="#008059"/></linearGradient><path clip-path="url(#w)" fill="url(#x)" d="M98 71.6l-19.6-.8.5-10.4 19.6.9z"/></g><g><defs><path id="y" d="M76.5 72.4c-.6.3-2.6 1.4-5.7 2-2 .3-5.4.5-5.4.5-.9 0-.7.3-.3.5.4.3 2.1 1.6 4.7 1.8 2.9.3 3.9 0 6.5-.7s3.3-.2 4.8 0c.9.2 4.3 1.8 4.1 1.3-.1-.2-.7-1.2-.7-1.2s-3.3-3.8-4.9-4.6c-.5-.2-.9-.3-1.3-.3-.9.1-1.4.5-1.8.7"/></defs><clipPath id="z"><use xlink:href="#y" overflow="visible"/></clipPath><linearGradient id="A" gradientUnits="userSpaceOnUse" x1="17.655" y1="-119.566" x2="20.185" y2="-119.566" gradientTransform="scale(-3.1633) rotate(-63.703 75.211 -36.649)"><stop offset="0" stop-color="#fff79d"/><stop offset="1" stop-color="#008059"/></linearGradient><path clip-path="url(#z)" fill="url(#A)" d="M68.5 63.5L61.8 77l19.4 9.6 6.7-13.5z"/></g><g><defs><path id="B" d="M36.2 56.3c-.1 0-.3.5-.5.6-.7.9-2.5 2.9-4.2 4.6-2 2-2.8 3.7-2.1 6.1.8 2.7 2.6 3.7 4.9 5 2 1.1 9 3.8 9.7 3.6.7-.2-1-.7-2.3-2.8-1-1.6-2.7-5.5-.4-9 .4-.6.5-.9.1-1.4-.4-.5-.9-1.1-2.8-3.2-.7-.8-1.6-2.1-2-2.8-.2-.2-.3-.7-.4-.7"/></defs><clipPath id="C"><use xlink:href="#B" overflow="visible"/></clipPath><linearGradient id="D" gradientUnits="userSpaceOnUse" x1="6.777" y1="-85.499" x2="9.306" y2="-85.499" gradientTransform="matrix(.1926 6.0663 -6.0663 .1926 -483.633 28.887)"><stop offset="0" stop-color="#fff79d"/><stop offset="1" stop-color="#008059"/></linearGradient><path clip-path="url(#C)" fill="url(#D)" d="M28.1 56.4l.6 20.6 16.7-.5-.6-20.7z"/></g><g><defs><path id="E" d="M36.8 76.1c-.5.6-1.1 1.1-2.8 3.4 0 0-1.8 2.7-2 3.2-.2.6-.3.7-.1.8.1.1.8-.7 1.2-1 .2-.2 1.5-1.1 3.3-1.8 1.2-.5 1.8-.9 5-1.1.9-.1 1.4 0 1.9 0 .7 0 1.2 0 2.5-.2 1.9-.3 3.5-1.3 3.5-1.5.1-.2.4-.3-.3-.4 0 0-5.5.1-8.8-1.1-2-.7-2.2-.7-2.2-.7h-.1c-.1 0-.1-.1-.2-.1-.3-.1-.6.1-.9.5"/></defs><clipPath id="F"><use xlink:href="#E" overflow="visible"/></clipPath><linearGradient id="G" gradientUnits="userSpaceOnUse" x1="-28.588" y1="-48.784" x2="-26.061" y2="-48.784" gradientTransform="matrix(4.2911 -2.7355 2.7355 4.2911 290.23 214.835)"><stop offset="0" stop-color="#fff79d"/><stop offset="1" stop-color="#008059"/></linearGradient><path clip-path="url(#F)" fill="url(#G)" d="M36.9 91.7l16.3-10.5-8.8-13.8-16.3 10.5z"/></g><g><defs><path id="H" d="M25.4 54.7c.2.6 1.5 2.4 2.7 3.3 1.1.9 2.5 1.7 2.5 1.7s.4.3.7 0c.3-.2 2.1-1.7 2.1-1.7s.5-.7-.6-1.1c0 0-3.8-1.2-5.7-2.2-.7-.3-1.2-.5-1.4-.5-.4 0-.5.2-.3.5"/></defs><clipPath id="I"><use xlink:href="#H" overflow="visible"/></clipPath><linearGradient id="J" gradientUnits="userSpaceOnUse" x1="-28.465" y1="-125.34" x2="-25.939" y2="-125.34" gradientTransform="rotate(180 -29.455 -174.841) scale(3.2455)"><stop offset="0" stop-color="#fff79d"/><stop offset="1" stop-color="#008059"/></linearGradient><path clip-path="url(#I)" fill="url(#J)" d="M25.2 54.2h8.6V60h-8.6z"/></g><g><defs><path id="K" d="M39.1 58.5c.1.2 2.1 2.7 2.7 3.3.6.6.9.5 1.1.3.2-.3.3-.3 1.3-1.2.7-.6 1.3-1.2 2.2-1.6.5-.2.7-.7 0-.7 0 0-1.9.2-3.4.2-1.4 0-2.1-.4-2.6-.5 0 0-.6-.2-1-.2-.2 0-.4.1-.3.4"/></defs><clipPath id="L"><use xlink:href="#K" overflow="visible"/></clipPath><linearGradient id="M" gradientUnits="userSpaceOnUse" x1="-31.56" y1="-127.931" x2="-29.035" y2="-127.931" gradientTransform="rotate(180 -25.603 -168.773) scale(3.1094)"><stop offset="0" stop-color="#fff79d"/><stop offset="1" stop-color="#008059"/></linearGradient><path clip-path="url(#L)" fill="url(#M)" d="M39 58.1h8.2v4.4H39z"/></g><g><defs><path id="N" d="M23.4 55.5c-.5.8-1.4 1.9-2.4 2.6-1.8 1.4-2.6 2.8-3 4.1-.7 2.2.6 4.7 2.2 6.3 2.7 2.7 5.8 3.7 6.7 4 2.9.9 5.9 1.3 6.8 1.3.9.1 1.1-.2.1-.5-1.6-.6-3.3-1.7-4.5-2.9-1.3-1.3-1.5-2.5-1.6-4.2-.1-1.5.5-3.2 1-3.8.6-.8.8-1.5.3-2.1-.3-.4-.7-.5-1.8-1.2-3.7-2.6-3.2-4.2-3.2-4.2 0-.1 0-.3-.2-.3s-.2.4-.4.9"/></defs><clipPath id="O"><use xlink:href="#N" overflow="visible"/></clipPath><linearGradient id="P" gradientUnits="userSpaceOnUse" x1="15.324" y1="-84.817" x2="17.852" y2="-84.817" gradientTransform="scale(4.503) rotate(86.347 -41.102 -41.573)"><stop offset="0" stop-color="#fff79d"/><stop offset="1" stop-color="#008059"/></linearGradient><path clip-path="url(#O)" fill="url(#P)" d="M16.1 54.7l1.3 20.4 18.7-1.2-1.3-20.4z"/></g><g><defs><path id="Q" d="M19.6 42.7c0 .2.4 2.1-.3 3.9-.7 1.8-.5 3.7-.3 4.7.6 2.3 2.1 3.3 2.5 3.4.5.2 1-.6 2-1.2 1.3-.7 3.9-1.6 4.9-1.9 1-.2.7-.9.6-1-.1-.2-1-1.2-1.7-1.9-1.9-2.1-4-3.1-5.4-4-1.1-.8-2.2-2.2-2.2-2.2s-.2 0-.1.2"/></defs><clipPath id="R"><use xlink:href="#Q" overflow="visible"/></clipPath><linearGradient id="S" gradientUnits="userSpaceOnUse" x1="15.777" y1="-86.23" x2="18.305" y2="-86.23" gradientTransform="rotate(88.237 -163.996 -181.956) scale(4.207)"><stop offset="0" stop-color="#fff79d"/><stop offset="1" stop-color="#008059"/></linearGradient><path clip-path="url(#R)" fill="url(#S)" d="M18.2 42.5l.4 12.7 11.2-.4-.4-12.7z"/></g><g><defs><path id="T" d="M12 47s.7 1.1.9 1.7c.9 3.1.2 5.9-.2 7-.5 1.6-1.2 3.5-1.4 3.8-.3.5.5.6.8.7.8.2 2.8 1.1 3.7 1.7.5.3.8.2.9-.1.1-.3.2-.9 1.2-2.4.9-1.3 1.6-2 2.2-2.4.6-.4.2-1.1.1-1.3-.1-.2-1.3-2-2.6-3.5-.8-.9-4.9-4.9-4.9-4.9-.3-.3-.5-.4-.6-.4-.1-.2-.1.1-.1.1"/></defs><clipPath id="U"><use xlink:href="#T" overflow="visible"/></clipPath><linearGradient id="V" gradientUnits="userSpaceOnUse" x1="9.745" y1="-83.924" x2="12.272" y2="-83.924" gradientTransform="rotate(88.238 -219.003 -216.175) scale(5.2748)"><stop offset="0" stop-color="#fff79d"/><stop offset="1" stop-color="#008059"/></linearGradient><path clip-path="url(#U)" fill="url(#V)" d="M10.6 46.8l.5 15.6 10.2-.3-.5-15.7z"/></g><g><defs><path id="W" d="M6.9 61.5c-2 .2-4.6 1.6-5.1 2-.4.3-.5.4 0 .5.9 0 4.2.3 6 1.1 2.6 1.1 4.7 2.7 6.3 3.9 2.2 1.6 4.8 1.7 5.6 1.8.8.1.2-.5-.2-.9-.4-.3-1.5-1.7-2.1-2.9-.3-.7-.6-1.6-1-2.7s-.4-1.1-1.2-1.4c-.2-.1-.5-.3-3-1.1-1-.3-2-.4-2.9-.4-1-.1-1.8 0-2.4.1"/></defs><clipPath id="X"><use xlink:href="#W" overflow="visible"/></clipPath><linearGradient id="Y" gradientUnits="userSpaceOnUse" x1="-14.658" y1="-43.398" x2="-12.133" y2="-43.398" gradientTransform="matrix(4.2102 -.1914 .1914 4.2102 73.85 246.245)"><stop offset="0" stop-color="#fff79d"/><stop offset="1" stop-color="#008059"/></linearGradient><path clip-path="url(#X)" fill="url(#Y)" d="M1.4 71.6l19.6-.8-.5-10.4-19.6.9z"/></g><g><defs><path id="Z" d="M20 72.1c-1.6.8-4.9 4.6-4.9 4.6s-.6.9-.7 1.2c-.2.4 3.1-1.2 4.1-1.3 1.5-.3 2.2-.7 4.8 0 2.6.7 3.6 1 6.5.7 2.5-.2 4.3-1.5 4.7-1.8.4-.3.6-.5-.3-.5 0 0-3.5-.2-5.4-.5-3.1-.5-5.1-1.6-5.7-2-.4-.2-.9-.6-1.7-.6-.5-.1-.9 0-1.4.2"/></defs><clipPath id="aa"><use xlink:href="#Z" overflow="visible"/></clipPath><linearGradient id="ab" gradientUnits="userSpaceOnUse" x1="30.497" y1="-93.232" x2="33.027" y2="-93.232" gradientTransform="scale(3.164 -3.164) rotate(-63.704 76.154 -38.437)"><stop offset="0" stop-color="#fff79d"/><stop offset="1" stop-color="#008059"/></linearGradient><path clip-path="url(#aa)" fill="url(#ab)" d="M30.9 63.5L37.6 77l-19.4 9.6-6.7-13.5z"/></g><path fill="#FCD13E" d="M77.7 28.9c0 15.5-12.5 28-28 28s-28-12.6-28-28C21.7 13.4 34.2.8 49.7.8c15.4 0 28 12.6 28 28.1"/><path fill="#FFF" d="M70.5 28.9c0 11.5-9.3 20.9-20.9 20.9-11.5 0-20.9-9.3-20.9-20.9.1-11.5 9.4-20.9 21-20.9 11.5 0 20.8 9.4 20.8 20.9"/><path fill="none" stroke="#FCD13E" stroke-width=".751" d="M69.2 28.9c0 10.8-8.7 19.5-19.5 19.5s-19.5-8.7-19.5-19.5S38.9 9.4 49.7 9.4c10.7 0 19.5 8.7 19.5 19.5z"/><path fill="#009844" d="M49.6 17.5c-3.1-2-7.1-2.5-11-.2-5.3 3.2-6.2 10-2.9 15.4 3.6 6.1 10.7 11.8 14 12.9.7-.3 2.6-1.4 2.9-1.6 0 0-19.7-10.2-16-21.1 2.7-7.9 13.2-6.9 14.7.6.6 2.9-.6 4.8-.8 5.2 0 0 2.6 1.8 2.7 1.8 2.3-5 .4-10.5-3.6-13"/><path fill="#009844" d="M41 22.6c.2-1 .7-1.8 1.4-2.8-1.9.6-3 1.9-3.6 3.3-3.2 8.7 13.8 18.5 15.6 19.8.3-.2 1.7-1.3 2.4-1.9-.1-.1-17.9-8.8-15.8-18.4"/><path fill="#009844" d="M45.5 19.7c-.7.2-2 1.6-2.4 2.9-2.1 6.6 11 14.9 15.2 16.8.6-.6 1.3-1.3 2-2.2 0 0-19.1-8.6-14.8-17.5"/><path fill="#009844" d="M51.1 16.9c4.9-.8 8.2 3.4 8.8 7.4.6 3.9-.9 6.6-2.5 8.7L55 31.6c4.4-5.1 1.6-12.7-3.9-14.7"/><path fill="#009844" d="M55.7 16.1c2.3.9 7.8 3.6 7.6 10.1-.1 4-3 7-3.8 7.9.2.2 2.4 1.2 2.4 1.2 2.9-3.7 4-6.5 3.8-9.9-.5-7.7-7.5-9.6-10-9.3"/><g><defs><path id="ac" d="M49.7 58c-.7 0-.8 1-1.8 2-.6.6-.2.2-2.3 1.8-3 2.2-3.9 3.7-3.9 6.8 0 1.8.6 3.5 1.6 4.8.1.1.1.2.2.3 0 .1.1.1.1.2 1.5 1.7 3.6 2.7 6 2.7 4.4 0 8-3.6 8-8 0-2.9-1.8-5.4-4-6.9-1.3-.9-1.1-.8-1.8-1.3-1.5-1.3-1.4-2.4-2.1-2.4"/></defs><clipPath id="ad"><use xlink:href="#ac" overflow="visible"/></clipPath><linearGradient id="ae" gradientUnits="userSpaceOnUse" x1="12.484" y1="-72.018" x2="15.011" y2="-72.018" gradientTransform="matrix(.1965 5.0097 5.0097 -.1965 407.673 -19.634)"><stop offset="0" stop-color="#fff79d"/><stop offset="1" stop-color="#008059"/></linearGradient><path clip-path="url(#ad)" fill="url(#ae)" d="M57.7 57.4l.7 19.2-16.6.6-.7-19.1z"/></g></g></svg>